<svg width="12" height="20" viewBox="0 0 12 20" fill="none" xmlns="http://www.w3.org/2000/svg">
<path d="M9.59961 1.19995C9.91786 1.19995 10.2231 1.32637 10.4481 1.55141C10.6731 1.77644 10.7996 2.08166 10.7996 2.3999V16.7993C10.7996 17.1176 10.6731 17.4228 10.4481 17.6478C10.2231 17.8728 9.91786 17.9993 9.59961 17.9993H2.3999C2.08166 17.9993 1.77644 17.8728 1.55141 17.6478C1.32637 17.4228 1.19995 17.1176 1.19995 16.7993V2.3999C1.19995 2.08166 1.32637 1.77644 1.55141 1.55141C1.77644 1.32637 2.08166 1.19995 2.3999 1.19995H9.59961ZM2.3999 0C1.76341 0 1.15298 0.252846 0.702915 0.702915C0.252846 1.15298 0 1.76341 0 2.3999V16.7993C0 17.4358 0.252846 18.0462 0.702915 18.4963C1.15298 18.9464 1.76341 19.1992 2.3999 19.1992H9.59961C10.2361 19.1992 10.8465 18.9464 11.2966 18.4963C11.7467 18.0462 11.9995 17.4358 11.9995 16.7993V2.3999C11.9995 1.76341 11.7467 1.15298 11.2966 0.702915C10.8465 0.252846 10.2361 0 9.59961 0L2.3999 0Z" fill="#FAA344"/>
<path d="M6.00073 16.8003C6.31898 16.8003 6.62419 16.6739 6.84923 16.4488C7.07426 16.2238 7.20068 15.9186 7.20068 15.6003C7.20068 15.2821 7.07426 14.9769 6.84923 14.7518C6.62419 14.5268 6.31898 14.4004 6.00073 14.4004C5.68249 14.4004 5.37727 14.5268 5.15224 14.7518C4.9272 14.9769 4.80078 15.2821 4.80078 15.6003C4.80078 15.9186 4.9272 16.2238 5.15224 16.4488C5.37727 16.6739 5.68249 16.8003 6.00073 16.8003Z" fill="#FAA344"/>
</svg>
