<svg width="16" height="13" viewBox="0 0 16 13" fill="none" xmlns="http://www.w3.org/2000/svg">
<path d="M2.52632 0H13.4737C14.1437 0 14.7863 0.273928 15.2601 0.761522C15.7338 1.24912 16 1.91044 16 2.6V10.4C16 11.0896 15.7338 11.7509 15.2601 12.2385C14.7863 12.7261 14.1437 13 13.4737 13H2.52632C1.8563 13 1.21372 12.7261 0.739941 12.2385C0.266165 11.7509 0 11.0896 0 10.4V2.6C0 1.91044 0.266165 1.24912 0.739941 0.761522C1.21372 0.273928 1.8563 0 2.52632 0ZM2.52632 0.866667C2.13117 0.865984 1.74851 1.00903 1.44589 1.27053L8 5.65067L14.5541 1.27053C14.2514 1.00916 13.8688 0.866133 13.4737 0.866667H2.52632ZM8 6.68373L0.954947 1.976C0.880241 2.17505 0.841983 2.38662 0.842105 2.6V10.4C0.842105 10.8597 1.01955 11.3006 1.3354 11.6257C1.65125 11.9507 2.07964 12.1333 2.52632 12.1333H13.4737C13.9204 12.1333 14.3488 11.9507 14.6646 11.6257C14.9805 11.3006 15.1579 10.8597 15.1579 10.4V2.6C15.1579 2.37987 15.1183 2.16927 15.0451 1.976L8 6.68287V6.68373Z" fill="#FAA344"/>
</svg>
