<svg width="33" height="33" viewBox="0 0 33 33" fill="none" xmlns="http://www.w3.org/2000/svg">
<path d="M16.034 0C7.192 0 0 7.192 0 16.034C0 24.876 7.192 32.068 16.034 32.068C24.876 32.068 32.068 24.876 32.068 16.034C32.068 7.192 24.876 0 16.034 0ZM16.034 31C7.782 31 1.068 24.286 1.068 16.034C1.068 7.782 7.782 1.068 16.034 1.068C24.286 1.068 31 7.782 31 16.034C31 24.286 24.286 31 16.034 31Z" fill="white"/>
<path d="M19.51 16.2014L15.2878 13.3304C15.2348 13.2943 15.1732 13.2736 15.1096 13.2705C15.046 13.2674 14.9827 13.2819 14.9266 13.3125C14.8704 13.3432 14.8235 13.3888 14.7908 13.4445C14.758 13.5003 14.7407 13.564 14.7407 13.629V19.371C14.7407 19.436 14.758 19.4997 14.7908 19.5554C14.8235 19.6112 14.8704 19.6568 14.9266 19.6874C14.9827 19.7181 15.046 19.7326 15.1096 19.7295C15.1732 19.7263 15.2348 19.7056 15.2878 19.6696L19.51 16.7986C19.5582 16.7658 19.5977 16.7214 19.625 16.6693C19.6524 16.6172 19.6667 16.5591 19.6667 16.5C19.6667 16.4409 19.6524 16.3827 19.625 16.3307C19.5977 16.2786 19.5582 16.2342 19.51 16.2014ZM15.4444 18.7004V14.2995L18.6806 16.5L15.4444 18.7004ZM25.5127 11.3686C25.4434 11.0936 25.3109 10.8394 25.1263 10.6269C24.9417 10.4145 24.7103 10.2498 24.451 10.1466C21.4785 8.9814 16.6999 8.99916 16.5022 9.00015C16.3004 8.99898 11.5216 8.98131 8.54894 10.1465C8.28969 10.2498 8.05824 10.4144 7.87367 10.6269C7.68909 10.8394 7.5567 11.0935 7.4874 11.3685C7.26503 12.2391 7 13.8362 7 16.5C7 19.1638 7.26503 20.7609 7.48731 21.6315C7.55663 21.9064 7.68905 22.1606 7.87365 22.3731C8.05826 22.5856 8.28975 22.7502 8.54903 22.8535C11.5215 24.0186 16.3001 24.001 16.4978 23.9998C16.5077 23.9998 16.5286 24 16.56 24C17.1654 24 21.6246 23.9613 24.4511 22.8535C24.7103 22.7502 24.9418 22.5855 25.1263 22.3731C25.3109 22.1606 25.4433 21.9064 25.5126 21.6315C25.735 20.7609 26 19.1638 26 16.5C26 13.8361 25.735 12.2391 25.5127 11.3685V11.3686ZM24.8317 21.4506C24.7907 21.6152 24.7119 21.7675 24.6018 21.8949C24.4917 22.0223 24.3535 22.1212 24.1986 22.1834C21.3509 23.2996 16.5506 23.2829 16.4978 23.2821C16.4494 23.2821 11.6491 23.2996 8.80139 22.1834C8.64647 22.1212 8.50826 22.0223 8.39819 21.8949C8.28812 21.7674 8.20933 21.6151 8.16832 21.4505C7.95633 20.6205 7.7037 19.0879 7.7037 16.5C7.7037 13.9122 7.95642 12.3794 8.16832 11.5494C8.20933 11.3848 8.28812 11.2325 8.39819 11.105C8.50827 10.9776 8.64647 10.8787 8.80139 10.8165C11.6492 9.70032 16.4496 9.71809 16.5022 9.71791C16.5502 9.71728 21.3509 9.70023 24.1986 10.8165C24.3535 10.8788 24.4917 10.9777 24.6018 11.1051C24.7119 11.2325 24.7907 11.3848 24.8317 11.5494C25.0437 12.3794 25.2963 13.9121 25.2963 16.5C25.2963 19.0878 25.0436 20.6205 24.8317 21.4506Z" fill="white"/>
</svg>