<svg width="25" height="20" viewBox="0 0 25 20" fill="none" xmlns="http://www.w3.org/2000/svg">
<path d="M20.9441 1.62766C19.3399 0.861635 17.6471 0.314912 15.908 0.00111753C15.8922 -0.00164347 15.876 0.000741112 15.8616 0.00794349C15.8472 0.0151459 15.8353 0.0268123 15.8276 0.0413386C15.6096 0.443549 15.3683 0.969641 15.1998 1.3815C13.3252 1.08549 11.4183 1.08549 9.54366 1.3815C9.35565 0.922695 9.14297 0.475264 8.90661 0.0413386C8.89868 0.0269714 8.88675 0.0154394 8.8724 0.00826014C8.85805 0.0010809 8.84194 -0.00140912 8.8262 0.00111753C7.08668 0.313233 5.39355 0.86024 3.7901 1.62766C3.77638 1.63311 3.7649 1.64334 3.75763 1.65662C0.550723 6.64242 -0.329088 11.506 0.102313 16.3083C0.103859 16.3309 0.117775 16.3534 0.134784 16.3679C2.00222 17.8072 4.09098 18.9061 6.31202 19.6177C6.3277 19.6229 6.34455 19.6227 6.36012 19.6172C6.37569 19.6117 6.38917 19.6012 6.39861 19.5872C6.87485 18.9115 7.29852 18.1987 7.66343 17.449C7.67104 17.4336 7.67364 17.416 7.67085 17.3989C7.66807 17.3818 7.66004 17.3661 7.64797 17.3541C7.63998 17.3462 7.6305 17.3402 7.62014 17.3364C6.95396 17.07 6.30876 16.75 5.69043 16.3791C5.67316 16.369 5.66031 16.3523 5.65456 16.3325C5.6488 16.3127 5.65057 16.2914 5.6595 16.273C5.66476 16.261 5.67272 16.2505 5.6827 16.2424C5.81258 16.141 5.94246 16.0348 6.06616 15.9287C6.07709 15.9195 6.0902 15.9136 6.10409 15.9117C6.11798 15.9097 6.13213 15.9117 6.14502 15.9174C10.1946 17.8416 14.5782 17.8416 18.5783 15.9174C18.5917 15.9114 18.6064 15.9093 18.6208 15.9112C18.6353 15.9132 18.6489 15.9192 18.6603 15.9287C18.784 16.0348 18.9139 16.141 19.0438 16.2424C19.0543 16.2504 19.0627 16.261 19.0684 16.2732C19.074 16.2855 19.0766 16.2989 19.076 16.3125C19.0754 16.326 19.0716 16.3392 19.0649 16.3509C19.0582 16.3625 19.0488 16.3722 19.0376 16.3791C18.4207 16.7533 17.7746 17.073 17.1063 17.3348C17.0957 17.3388 17.086 17.3452 17.078 17.3536C17.07 17.3619 17.0638 17.372 17.0599 17.3831C17.0564 17.3938 17.0549 17.4052 17.0557 17.4165C17.0565 17.4279 17.0595 17.4389 17.0646 17.449C17.4357 18.1971 17.8609 18.9115 18.3279 19.5872C18.3373 19.6012 18.3508 19.6117 18.3663 19.6172C18.3819 19.6227 18.3988 19.6229 18.4144 19.6177C20.6392 18.9083 22.7314 17.8092 24.601 16.3679C24.6103 16.3611 24.6181 16.3523 24.6237 16.342C24.6293 16.3317 24.6327 16.3202 24.6334 16.3083C25.1499 10.7562 23.7691 5.93292 20.975 1.65823C20.9722 1.65117 20.968 1.6448 20.9627 1.63953C20.9573 1.63427 20.951 1.63022 20.9441 1.62766ZM8.26801 13.3835C7.04803 13.3835 6.04452 12.2187 6.04452 10.79C6.04452 9.35976 7.02947 8.19495 8.26801 8.19495C9.51583 8.19495 10.5101 9.36941 10.4915 10.79C10.4915 12.2187 9.50655 13.3835 8.26801 13.3835ZM16.4878 13.3835C15.2694 13.3835 14.2643 12.2187 14.2643 10.79C14.2643 9.35976 15.2493 8.19495 16.4878 8.19495C17.7356 8.19495 18.7314 9.36941 18.7113 10.79C18.7113 12.2187 17.7356 13.3835 16.4878 13.3835Z" fill="url(#paint0_linear_91_906)"/>
<defs>
<linearGradient id="paint0_linear_91_906" x1="0" y1="0" x2="25.1878" y2="19.0288" gradientUnits="userSpaceOnUse">
<stop stop-color="#5C6BC0"/>
<stop offset="1" stop-color="#5C6BC0" stop-opacity="0"/>
</linearGradient>
</defs>
</svg>
