<svg width="25" height="20" viewBox="0 0 25 20" fill="none" xmlns="http://www.w3.org/2000/svg">
<path d="M22.1971 4.89002C22.2128 5.10462 22.2128 5.31927 22.2128 5.53387C22.2128 12.0794 17.1109 19.6215 7.78626 19.6215C4.91349 19.6215 2.24484 18.809 0 17.3987C0.408165 17.4447 0.800578 17.46 1.22445 17.46C3.59482 17.46 5.77689 16.6783 7.51938 15.3446C5.29025 15.2986 3.42217 13.873 2.77854 11.9108C3.09253 11.9568 3.40647 11.9875 3.73616 11.9875C4.19139 11.9875 4.64667 11.9261 5.07049 11.8189C2.74718 11.359 1.00464 9.36618 1.00464 6.95948V6.89819C1.67963 7.26609 2.4646 7.49603 3.29654 7.52665C1.9308 6.63753 1.03604 5.11996 1.03604 3.40306C1.03604 2.48332 1.28717 1.64021 1.72674 0.904404C4.22275 3.90894 7.97461 5.87105 12.1817 6.0857C12.1032 5.71779 12.0561 5.3346 12.0561 4.95136C12.0561 2.22272 14.3166 0 17.1266 0C18.5865 0 19.9051 0.59784 20.8313 1.56359C21.9772 1.34899 23.0761 0.935075 24.0494 0.367905C23.6726 1.51763 22.872 2.48337 21.8203 3.0965C22.8407 2.98925 23.8297 2.71326 24.7401 2.33007C24.0495 3.3111 23.1861 4.18483 22.1971 4.89002Z" fill="url(#paint0_linear_91_905)"/>
<defs>
<linearGradient id="paint0_linear_91_905" x1="3.60793" y1="2.53726" x2="16.3701" y2="19.8176" gradientUnits="userSpaceOnUse">
<stop stop-color="#229AB5"/>
<stop offset="1" stop-color="#229AB5" stop-opacity="0"/>
</linearGradient>
</defs>
</svg>
