<svg width="41" height="40" viewBox="0 0 41 40" fill="none" xmlns="http://www.w3.org/2000/svg">
<rect x="0.5" y="0.5" width="40" height="39" rx="4.5" stroke="#939393"/>
<path fill-rule="evenodd" clip-rule="evenodd" d="M16.9957 12.051C17.9021 12.0093 18.1911 12 20.5 12C22.8089 12 23.0979 12.01 24.0035 12.051C24.9092 12.092 25.5274 12.2365 26.0683 12.4459C26.6347 12.6599 27.1485 12.9945 27.5735 13.4272C28.0063 13.8515 28.3401 14.3645 28.5534 14.9317C28.7635 15.4726 28.9073 16.0908 28.949 16.9949C28.9907 17.9029 29 18.1919 29 20.5C29 22.8089 28.99 23.0979 28.949 24.0043C28.908 24.9084 28.7635 25.5266 28.5534 26.0675C28.3401 26.6348 28.0057 27.1487 27.5735 27.5735C27.1485 28.0063 26.6347 28.3401 26.0683 28.5534C25.5274 28.7635 24.9092 28.9073 24.0051 28.949C23.0979 28.9907 22.8089 29 20.5 29C18.1911 29 17.9021 28.99 16.9957 28.949C16.0916 28.908 15.4734 28.7635 14.9325 28.5534C14.3653 28.3401 13.8513 28.0057 13.4265 27.5735C12.994 27.1491 12.6594 26.6354 12.4459 26.0683C12.2365 25.5274 12.0927 24.9092 12.051 24.0051C12.0093 23.0971 12 22.8081 12 20.5C12 18.1911 12.01 17.9021 12.051 16.9965C12.092 16.0908 12.2365 15.4726 12.4459 14.9317C12.6597 14.3646 12.9946 13.8509 13.4272 13.4265C13.8515 12.9941 14.3649 12.6595 14.9317 12.4459C15.4726 12.2365 16.0908 12.0927 16.9949 12.051H16.9957ZM23.9348 13.581C23.0384 13.54 22.7695 13.5315 20.5 13.5315C18.2305 13.5315 17.9616 13.54 17.0652 13.581C16.2361 13.6189 15.7864 13.7572 15.4865 13.8739C15.0901 14.0284 14.8065 14.2115 14.509 14.509C14.227 14.7834 14.01 15.1174 13.8739 15.4865C13.7572 15.7864 13.6189 16.2361 13.581 17.0652C13.54 17.9616 13.5315 18.2305 13.5315 20.5C13.5315 22.7695 13.54 23.0384 13.581 23.9348C13.6189 24.7639 13.7572 25.2136 13.8739 25.5135C14.0099 25.882 14.227 26.2166 14.509 26.491C14.7834 26.773 15.118 26.9901 15.4865 27.1261C15.7864 27.2428 16.2361 27.3811 17.0652 27.419C17.9616 27.46 18.2297 27.4685 20.5 27.4685C22.7703 27.4685 23.0384 27.46 23.9348 27.419C24.7639 27.3811 25.2136 27.2428 25.5135 27.1261C25.9099 26.9716 26.1935 26.7885 26.491 26.491C26.773 26.2166 26.9901 25.882 27.1261 25.5135C27.2428 25.2136 27.3811 24.7639 27.419 23.9348C27.46 23.0384 27.4685 22.7695 27.4685 20.5C27.4685 18.2305 27.46 17.9616 27.419 17.0652C27.3811 16.2361 27.2428 15.7864 27.1261 15.4865C26.9716 15.0901 26.7885 14.8065 26.491 14.509C26.2166 14.2271 25.8826 14.01 25.5135 13.8739C25.2136 13.7572 24.7639 13.6189 23.9348 13.581ZM19.4143 23.1203C20.0206 23.3727 20.6958 23.4068 21.3244 23.2167C21.9531 23.0266 22.4963 22.6242 22.8612 22.0781C23.226 21.532 23.39 20.8762 23.3251 20.2227C23.2602 19.5691 22.9704 18.9584 22.5052 18.4948C22.2087 18.1984 21.8501 17.9715 21.4553 17.8303C21.0606 17.6892 20.6394 17.6373 20.2222 17.6785C19.805 17.7196 19.4021 17.8528 19.0425 18.0683C18.6829 18.2839 18.3756 18.5765 18.1426 18.9251C17.9097 19.2736 17.757 19.6695 17.6954 20.0842C17.6338 20.4989 17.665 20.9221 17.7866 21.3234C17.9082 21.7246 18.1173 22.0938 18.3987 22.4046C18.6802 22.7153 19.027 22.9597 19.4143 23.1203ZM17.4106 17.4106C17.8163 17.0049 18.298 16.6831 18.828 16.4636C19.3581 16.244 19.9263 16.131 20.5 16.131C21.0737 16.131 21.6419 16.244 22.172 16.4636C22.702 16.6831 23.1837 17.0049 23.5894 17.4106C23.9951 17.8163 24.3169 18.298 24.5364 18.828C24.756 19.3581 24.869 19.9263 24.869 20.5C24.869 21.0737 24.756 21.6419 24.5364 22.172C24.3169 22.702 23.9951 23.1837 23.5894 23.5894C22.77 24.4087 21.6587 24.869 20.5 24.869C19.3413 24.869 18.23 24.4087 17.4106 23.5894C16.5913 22.77 16.131 21.6587 16.131 20.5C16.131 19.3413 16.5913 18.23 17.4106 17.4106ZM25.838 16.7816C25.9385 16.6868 26.019 16.5728 26.0747 16.4463C26.1304 16.3198 26.1601 16.1834 26.1621 16.0452C26.1641 15.907 26.1384 15.7698 26.0864 15.6417C26.0345 15.5136 25.9573 15.3973 25.8596 15.2996C25.7619 15.2018 25.6455 15.1247 25.5175 15.0728C25.3894 15.0208 25.2522 14.9951 25.114 14.9971C24.9758 14.9991 24.8394 15.0288 24.7129 15.0845C24.5864 15.1402 24.4724 15.2206 24.3775 15.3212C24.1931 15.5167 24.0921 15.7764 24.096 16.0452C24.1 16.3139 24.2085 16.5706 24.3985 16.7607C24.5886 16.9507 24.8452 17.0592 25.114 17.0631C25.3828 17.0671 25.6425 16.9661 25.838 16.7816Z" fill="#939393"/>
</svg>
