<svg width="41" height="40" viewBox="0 0 41 40" fill="none" xmlns="http://www.w3.org/2000/svg">
<rect x="0.5" y="0.5" width="40" height="39" rx="4.5" stroke="#939393"/>
<path d="M16.1538 25.1964V16.625C16.1538 16.4119 16.0688 16.2075 15.9173 16.0568C15.7658 15.9061 15.5604 15.8214 15.3462 15.8214C15.1319 15.8214 14.9265 15.9061 14.775 16.0568C14.6236 16.2075 14.5385 16.4119 14.5385 16.625V25.1964C14.5385 25.4095 14.6236 25.6139 14.775 25.7646C14.9265 25.9153 15.1319 26 15.3462 26C15.5604 26 15.7658 25.9153 15.9173 25.7646C16.0688 25.6139 16.1538 25.4095 16.1538 25.1964Z" fill="#939393"/>
<path d="M14.5983 11.2257C14.8196 11.0785 15.0799 11 15.3462 11C15.7032 11 16.0456 11.1411 16.298 11.3923C16.5505 11.6434 16.6923 11.9841 16.6923 12.3393C16.6923 12.6042 16.6134 12.8631 16.4654 13.0834C16.3175 13.3036 16.1073 13.4753 15.8613 13.5766C15.6153 13.678 15.3447 13.7045 15.0835 13.6528C14.8224 13.6012 14.5825 13.4736 14.3943 13.2863C14.206 13.099 14.0778 12.8604 14.0259 12.6006C13.9739 12.3408 14.0006 12.0715 14.1025 11.8268C14.2044 11.582 14.3769 11.3729 14.5983 11.2257Z" fill="#939393"/>
<path d="M20.4615 16.9062C21.2882 16.2068 22.3378 15.8223 23.4231 15.8214C24.6359 15.825 25.798 16.3058 26.6555 17.159C27.5131 18.0122 27.9964 19.1684 28 20.375V25.1964C28 25.4095 27.9149 25.6139 27.7634 25.7646C27.612 25.9153 27.4065 26 27.1923 26C26.9781 26 26.7727 25.9153 26.6212 25.7646C26.4697 25.6139 26.3846 25.4095 26.3846 25.1964V20.375C26.3846 19.5936 26.0726 18.8441 25.5172 18.2916C24.9618 17.739 24.2085 17.4286 23.4231 17.4286C22.6376 17.4286 21.8843 17.739 21.329 18.2916C20.7736 18.8441 20.4615 19.5936 20.4615 20.375V25.1964C20.4615 25.4095 20.3764 25.6139 20.225 25.7646C20.0735 25.9153 19.8681 26 19.6538 26C19.4396 26 19.2342 25.9153 19.0827 25.7646C18.9313 25.6139 18.8462 25.4095 18.8462 25.1964V16.625C18.8462 16.4119 18.9313 16.2075 19.0827 16.0568C19.2342 15.9061 19.4396 15.8214 19.6538 15.8214C19.8681 15.8214 20.0735 15.9061 20.225 16.0568C20.3764 16.2075 20.4615 16.4119 20.4615 16.625V16.9062Z" fill="#939393"/>
</svg>
