<svg width="41" height="40" viewBox="0 0 41 40" fill="none" xmlns="http://www.w3.org/2000/svg">
<rect x="0.5" y="0.5" width="40" height="39" rx="4.5" stroke="#939393"/>
<path d="M16.8612 26.4208C16.3465 27.1717 15.7952 27.8968 15.2092 28.5935C11.0193 28.4742 9.42969 25.7548 9.42969 25.7548C9.48924 21.9017 10.423 18.1124 12.1605 14.6728C13.6878 13.478 15.5487 12.7875 17.4857 12.6971L18.0535 14.0085C18.8643 13.896 19.6818 13.8372 20.5004 13.8325C21.3227 13.8352 22.1439 13.8921 22.9586 14.0029L23.5264 12.6914C25.4653 12.7868 27.3265 13.4832 28.8517 14.6841C30.5835 18.1213 31.5133 21.9064 31.5711 25.7548C31.5711 25.7548 29.9814 28.4742 25.7916 28.5935C25.2145 27.9001 24.6726 27.1782 24.1679 26.4304M27.8354 24.784C25.6554 25.8882 23.5457 26.9925 20.5004 26.9925C17.4551 26.9925 15.3454 25.8882 13.1653 24.784" stroke="#939393" stroke-width="1.5" stroke-linecap="round" stroke-linejoin="round"/>
<path d="M17.0074 23.8135C18.0577 23.8135 18.9092 22.962 18.9092 21.9117C18.9092 20.8613 18.0577 20.0098 17.0074 20.0098C15.957 20.0098 15.1055 20.8613 15.1055 21.9117C15.1055 22.962 15.957 23.8135 17.0074 23.8135Z" stroke="#939393" stroke-width="1.5" stroke-linecap="round" stroke-linejoin="round"/>
<path d="M23.9956 23.8135C25.046 23.8135 25.8975 22.962 25.8975 21.9117C25.8975 20.8613 25.046 20.0098 23.9956 20.0098C22.9453 20.0098 22.0938 20.8613 22.0938 21.9117C22.0938 22.962 22.9453 23.8135 23.9956 23.8135Z" stroke="#939393" stroke-width="1.5" stroke-linecap="round" stroke-linejoin="round"/>
</svg>
