<svg width="41" height="40" viewBox="0 0 41 40" fill="none" xmlns="http://www.w3.org/2000/svg">
<rect x="0.5" y="0.5" width="40" height="39" rx="4.5" stroke="#939393"/>
<path d="M24.4917 11.0037H21.8275C18.4344 10.9716 18.001 12.957 18.001 15.1056V16.668H16.5032C16.4355 16.6594 16.3666 16.6658 16.3019 16.6865C16.2372 16.7072 16.1784 16.7417 16.1302 16.7873C16.0819 16.833 16.0453 16.8886 16.0234 16.9497C16.0016 17.0109 15.9949 17.076 16.0039 17.14V19.9721C15.9949 20.0362 16.0016 20.1013 16.0234 20.1624C16.0453 20.2236 16.0819 20.2792 16.1302 20.3248C16.1784 20.3705 16.2372 20.405 16.3019 20.4257C16.3666 20.4464 16.4355 20.4527 16.5032 20.4442H18.001V27.5245C17.9927 27.5886 18 27.6537 18.0224 27.7147C18.0447 27.7758 18.0815 27.8312 18.13 27.8767C18.1784 27.9223 18.2373 27.9568 18.302 27.9775C18.3667 27.9983 18.4355 28.0048 18.5033 27.9965H21.5539C21.8485 28.0286 22.0872 27.803 21.9933 27.5245L21.9953 20.4442H24.4917C24.5594 20.4527 24.6283 20.4464 24.693 20.4257C24.7577 20.405 24.8165 20.3705 24.8648 20.3248C24.9131 20.2792 24.9496 20.2236 24.9715 20.1624C24.9934 20.1013 25 20.0362 24.991 19.9721V17.14C25 17.076 24.9934 17.0109 24.9715 16.9497C24.9496 16.8886 24.9131 16.833 24.8648 16.7873C24.8165 16.7417 24.7577 16.7072 24.693 16.6865C24.6283 16.6658 24.5594 16.6594 24.4917 16.668H21.9923L21.9953 15.2519C22.0922 14.6487 22.0922 14.7469 22.6843 14.7799H24.4707C24.6095 14.7506 24.7573 14.7667 24.8612 14.6713C24.965 14.576 25.0249 14.4457 24.99 14.3079V11.4757C24.9992 11.4118 24.9927 11.3467 24.9709 11.2855C24.9492 11.2243 24.9127 11.1687 24.8645 11.1231C24.8163 11.0774 24.7576 11.0428 24.6929 11.0221C24.6282 11.0014 24.5594 10.9951 24.4917 11.0037ZM23.9575 13.783L22.7053 13.7377C21.1545 13.7377 21.0247 14.5335 21.0247 15.3482L21.0207 17.1381C21.0206 17.2044 21.0343 17.2701 21.061 17.3313C21.0877 17.3926 21.127 17.4483 21.1765 17.4952C21.2261 17.5421 21.2849 17.5793 21.3496 17.6047C21.4144 17.6301 21.4838 17.6432 21.5539 17.6432H23.9924V19.4671H21.5559C21.4144 19.4671 21.2787 19.5202 21.1785 19.6147C21.0784 19.7092 21.022 19.8374 21.0217 19.9712L21.0207 27.0525H18.9996V19.9721C18.9996 19.6937 18.7989 19.468 18.5033 19.468H17.0025V17.6441H18.5033C18.5734 17.6442 18.6428 17.6313 18.7076 17.606C18.7723 17.5807 18.8312 17.5437 18.8808 17.4969C18.9806 17.4015 18.9986 17.2731 18.9986 17.1391V15.1047C18.9986 12.9881 19.451 11.9799 21.8265 11.9799H23.9565V13.783H23.9575Z" fill="#919191"/>
</svg>
