<svg width="33" height="33" viewBox="0 0 33 33" fill="none" xmlns="http://www.w3.org/2000/svg">
<path d="M19.5492 11.9863C18.8712 11.9863 18.3692 12.1573 17.9762 12.3733C17.9132 12.1493 17.7062 11.9853 17.4622 12.0343H14.4782C14.1832 11.9853 13.9442 12.2243 14.0352 12.5343V23.5343C13.9442 23.8143 14.1832 24.0543 14.4782 24.0343H17.4622C17.7572 24.0543 17.9962 23.8143 17.9962 23.5193L17.9952 16.8713C17.9942 16.8683 17.9832 16.5503 18.1842 16.3313C18.3452 16.1573 18.6222 16.0683 19.0052 16.0683C19.6432 16.0683 19.9272 16.3293 20.0332 16.9133V23.5193C19.9282 23.8143 20.1672 24.0543 20.4622 24.0343H23.6072C23.9022 24.0543 24.1412 23.8143 24.0352 23.5193V16.6913C24.1402 13.2193 21.6672 11.9863 19.5492 11.9863ZM23.0722 23.0343H20.9962V16.9133C20.9962 15.7323 20.2332 15.0003 19.0062 15.0003C18.3122 15.0003 17.7722 15.2043 17.4002 15.6063C16.8832 16.1663 16.9232 16.8763 17.0342 17.0343V23.0343H15.0122V13.0543H16.9282V13.3903C16.9274 13.4904 16.9549 13.5887 17.0075 13.6739C17.0601 13.7591 17.1356 13.8277 17.2254 13.8719C17.3152 13.916 17.4157 13.934 17.5153 13.9236C17.6148 13.9133 17.7094 13.875 17.7882 13.8133L17.9282 13.7053C18.3332 13.3863 18.7522 13.0553 19.5502 13.0553C20.3762 13.0553 23.0732 13.3183 23.0732 16.6923V23.0343H23.0722Z" fill="white"/>
<path d="M11.034 7C9.912 7 9 7.912 9 9.034C9 10.156 9.912 11.068 11.034 11.068C12.156 11.068 13.068 10.156 13.068 9.034C13.068 7.912 12.156 7 11.034 7ZM11.034 10C10.502 10 10.068 9.566 10.068 9.034C10.068 8.502 10.502 8.068 11.034 8.068C11.566 8.068 12 8.502 12 9.034C12 9.566 11.566 10 11.034 10Z" fill="white"/>
<path d="M12.4611 11.9844H9.49311C9.19811 11.9844 8.95911 12.2234 9.03311 12.5334V23.5334C8.95911 23.8134 9.19811 24.0534 9.49311 24.0334H12.4611C12.7561 24.0534 12.9951 23.8134 12.9951 23.5184V12.5184C12.9951 12.3767 12.9389 12.2409 12.8387 12.1408C12.7386 12.0406 12.6027 11.9844 12.4611 11.9844ZM12.0331 23.0334H10.0271V13.0534H12.0331V23.0334Z" fill="white"/>
<path d="M16.034 0C7.192 0 0 7.192 0 16.034C0 24.876 7.192 32.068 16.034 32.068C24.876 32.068 32.068 24.876 32.068 16.034C32.068 7.192 24.876 0 16.034 0ZM16.034 31C7.782 31 1.068 24.286 1.068 16.034C1.068 7.782 7.782 1.068 16.034 1.068C24.286 1.068 31 7.782 31 16.034C31 24.286 24.286 31 16.034 31Z" fill="white"/>
</svg>