<svg width="64" height="64" viewBox="0 0 64 64" fill="none" xmlns="http://www.w3.org/2000/svg">
<path d="M31.6284 64C24.793 64 18.2278 61.7768 12.6391 57.576C5.08511 51.9014 0.497455 43.5183 0.0552708 34.5825L0 33.5507H38.1998C38.9122 33.5446 39.4956 33.3419 39.8396 32.9857C40.0914 32.7278 40.2203 32.3838 40.208 31.9785C40.1896 31.0082 39.4465 30.437 38.2244 30.437H0.0491327L0.0675563 29.4298C0.46675 16.1152 11.9881 1.10546 29.915 0.0614145C30.566 0.0245658 31.2292 0 31.8802 0C34.7114 0 37.512 0.362345 40.2142 1.08089C41.9768 1.54764 43.6964 2.17407 45.33 2.93561C47.0312 3.72786 48.6771 4.67978 50.2186 5.76682L50.7222 6.12302L49.4816 7.60925L49.0517 7.30832C47.6392 6.31955 46.1345 5.44746 44.5685 4.72277C42.9778 3.9858 41.3135 3.39008 39.6369 2.94789C37.1619 2.2969 34.5702 1.96526 31.9294 1.96526C31.2968 1.96526 30.652 1.98369 30.0132 2.02054C13.7691 2.97246 2.99088 16.3608 2.07581 28.4533H13.5787C21.7898 28.4533 29.9948 28.4533 38.2059 28.4595C40.4906 28.4595 42.1242 29.8843 42.1672 31.9232C42.1856 32.8752 41.8662 33.7165 41.2459 34.3614C40.5274 35.0922 39.4465 35.5098 38.1998 35.5221H2.09423C2.8005 43.4753 7.05038 50.9064 13.8244 55.9916C19.0753 59.9344 25.2352 62.0225 31.6346 62.0225C33.2805 62.0225 34.9325 61.8812 36.5539 61.5987L36.3696 61.4083C34.8404 59.8729 33.2805 58.3007 31.7144 56.7899C31.6776 56.7654 31.4749 56.6855 31.1801 56.6671C21.7714 56.1451 14.6473 51.6987 10.0044 43.4507C9.86316 43.1928 9.75261 42.9348 9.65435 42.6953C9.62978 42.6401 9.59294 42.5602 9.56223 42.4804L9.50696 42.3575L8.9358 41.0924L10.3238 40.9696C10.4343 40.9634 10.508 40.9573 10.5694 40.945L10.6984 40.9389C10.8028 40.9327 10.8826 40.9266 10.9686 40.9266L14.0148 40.9204C18.5779 40.9204 23.2945 40.9204 27.9436 40.9512C28.7358 40.9512 29.5035 41.424 29.915 41.8294C33.1392 45.0291 36.6214 48.5051 41.203 53.0928L43.3709 55.2546L46.3679 58.27C53.6701 54.7326 61.7092 43.2358 61.5434 36.646H60.7082C60.0572 36.6521 59.3878 36.6521 58.7184 36.6521C57.9015 36.6521 57.0725 36.646 56.2618 36.6276H56.1451C56.1021 36.6276 56.0714 36.6276 56.0468 36.6276C56.0346 36.6706 56.0161 36.732 55.9977 36.8364C54.9291 42.2777 52.2821 46.8715 48.1305 50.4888L47.4304 51.0968L37.6041 41.2889L39.3851 40.9082C39.4465 40.8959 39.7536 40.8345 39.8273 40.816C40.2449 40.7423 40.7055 40.6564 41.1415 40.5274C45.3423 39.2991 48.0814 35.1843 47.5102 30.9467C46.8899 26.4021 43.1928 23.098 38.7095 23.0918C32.3286 23.0734 25.8309 23.0734 19.5605 23.0734C16.9013 23.0796 14.2481 23.0796 11.5828 23.0796H8.89895L9.48854 21.6977C9.5131 21.624 9.63593 21.3354 9.63593 21.3354C9.73419 21.0959 9.82631 20.8871 9.92457 20.6905C13.5112 13.7323 20.0027 8.99108 27.7348 7.68295C29.1412 7.44957 30.5598 7.32674 31.9601 7.32674C33.8946 7.32674 35.8231 7.55398 37.6778 8.0023L38.2981 8.1497L37.6163 10.0167L37.125 9.90001C35.4361 9.50082 33.692 9.29815 31.9478 9.29815C30.6581 9.29815 29.3561 9.40869 28.0664 9.62364C21.1266 10.7967 15.2799 14.9667 11.9451 21.0959H19.5605C22.189 21.0897 24.8544 21.0897 27.5321 21.0897C31.2538 21.0897 35.0001 21.0959 38.7095 21.102C44.1938 21.1081 48.7201 25.1308 49.4632 30.6704C50.1633 35.866 46.8224 40.9143 41.6943 42.4067C41.6513 42.419 41.6144 42.4312 41.5714 42.4435L47.5041 48.3639C50.9249 45.1396 53.1296 41.1293 54.0509 36.4311C54.2965 35.2028 54.9782 34.6255 56.1881 34.6255H56.3109C57.1154 34.6439 57.9384 34.65 58.7552 34.65C59.4062 34.65 60.0572 34.6439 60.6959 34.6439H63.2999L63.4227 35.4853C63.9447 38.9982 62.1391 44.2 58.5771 49.3895C55.0581 54.5299 50.5502 58.6201 46.5276 60.3336L45.9134 60.5854L44.3658 59.0254C43.5736 58.227 42.7629 57.4164 41.9645 56.618L39.7966 54.4501C36.517 51.1582 32.433 47.068 28.5209 43.1928C28.3305 43.0085 28.0357 42.8857 27.9251 42.8857C24.6088 42.8611 21.188 42.855 17.9944 42.855H11.9574C16.2564 50.2186 22.7541 54.186 31.2845 54.6589C32.0891 54.7203 32.6909 54.9475 33.0901 55.3344C34.386 56.5873 35.6879 57.8893 36.9469 59.1544L37.7699 59.9774L38.9368 61.1504C39.0535 61.2671 39.1333 61.3899 39.1886 61.4759L39.2377 61.5496L39.2561 61.5864L40.0852 62.8024L38.6911 63.1279C36.3942 63.7236 34.0113 64 31.6284 64Z" fill="url(#paint0_linear_242_1417)"/>
<path d="M62.8088 35.2359H60.6962C59.2468 35.242 57.7544 35.2482 56.2866 35.2236C55.2671 35.1929 54.8004 35.5737 54.6039 36.5624C53.6212 41.5616 51.2261 45.8053 47.4798 49.1708L40.4355 42.1389C40.7733 42.0713 41.1541 41.9915 41.5287 41.8809C46.3928 40.4622 49.5556 35.6842 48.8923 30.7649C48.186 25.5201 43.8993 21.7001 38.6975 21.694C32.3166 21.6817 25.8189 21.6817 19.5485 21.6878H11.018C11.0733 21.5589 11.1163 21.4545 11.1716 21.3439C14.5432 14.7849 20.6662 10.32 27.9623 9.0856C31.119 8.5513 34.2573 8.6557 37.2481 9.36811L37.5368 8.57586C34.4169 7.82046 31.1251 7.70378 27.821 8.26265C20.2609 9.54621 13.9229 14.1707 10.4223 20.9632C10.3302 21.1474 10.2442 21.3439 10.1582 21.565C10.1152 21.6817 10.06 21.7984 10.0047 21.9396L9.75288 22.5292H11.5769C14.2361 22.5292 16.8892 22.5292 19.5485 22.5231C25.825 22.5231 32.3166 22.5231 38.6975 22.5354C43.4694 22.5415 47.4061 26.0606 48.0571 30.8816C48.6651 35.3894 45.754 39.7805 41.2892 41.0825C40.8225 41.2176 40.3373 41.3098 39.9381 41.3773C39.7723 41.4142 39.6187 41.4387 39.4898 41.4694L38.7344 41.6291L47.4429 50.3193L47.7377 50.0613C51.7911 46.5238 54.3766 42.0345 55.4207 36.7282C55.5435 36.1018 55.6848 36.0404 56.2621 36.0588C57.7421 36.0895 59.2407 36.0834 60.7023 36.0711H62.0719C62.729 42.9127 54.1003 55.4105 46.2392 58.948L45.361 58.0636C44.5687 57.2652 43.7581 56.4546 42.9597 55.6439L40.7918 53.476C37.1007 49.7788 33.2808 45.9588 29.5099 42.2126C29.1537 41.8625 28.5273 41.494 27.9316 41.494C23.2886 41.4633 18.572 41.4633 14.0089 41.4633L10.9566 41.4694C10.8583 41.4694 10.7662 41.4756 10.6188 41.4817C10.5513 41.4879 10.4653 41.494 10.3609 41.5063L9.76517 41.5616L10.0108 42.102C10.0661 42.2248 10.1091 42.3354 10.1644 42.4521C10.2626 42.6977 10.3609 42.925 10.4837 43.1461C15.0284 51.2221 21.9989 55.5641 31.1988 56.0738C31.5857 56.0984 31.9481 56.2089 32.0955 56.3563C33.6738 57.8794 35.246 59.4577 36.763 60.987L37.7026 61.9327C29.3257 63.7138 20.525 61.7239 13.4746 56.43C6.37508 51.0992 2.0208 43.2873 1.47421 34.9411H38.2001C39.2932 34.9288 40.2329 34.5726 40.847 33.9523C41.3629 33.418 41.627 32.7179 41.6086 31.9256C41.5717 30.1876 40.2083 29.0207 38.2185 29.0207C30.0074 29.0146 21.8024 29.0146 13.5913 29.0146H1.48649C2.0945 16.4431 13.0508 2.43442 29.9951 1.44564C33.4773 1.23683 36.7568 1.59304 39.7907 2.39143C41.5533 2.84589 43.2299 3.46004 44.8205 4.19701C46.4357 4.95241 47.9588 5.83678 49.3898 6.83783L49.8995 6.22983C48.3764 5.15508 46.7674 4.22772 45.0969 3.44775C43.4817 2.69236 41.7928 2.08435 40.0732 1.62375C36.8305 0.763943 33.422 0.413881 29.946 0.616548C12.3323 1.64831 1.01974 16.3694 0.632834 29.4261L0.626691 29.856H38.2185C39.7661 29.856 40.7488 30.6666 40.7733 31.9502C40.7856 32.5091 40.6075 33.0004 40.2452 33.3689C39.7907 33.8418 39.066 34.0997 38.1939 34.1058H0.589844L0.61441 34.5419C1.05045 43.3119 5.55213 51.5353 12.971 57.1117C18.4737 61.251 25.0144 63.4251 31.6164 63.4251C33.9318 63.4251 36.2594 63.161 38.5563 62.6083L39.1458 62.4732L38.8019 61.9696C38.7774 61.9327 38.7589 61.902 38.7405 61.8713C38.6791 61.7792 38.6177 61.6748 38.5256 61.5827L37.3587 60.4097C35.8356 58.8866 34.2634 57.3021 32.685 55.7729C32.249 55.3552 31.5366 55.2754 31.2418 55.257C22.3428 54.7718 15.6057 50.5588 11.2145 42.753C11.1409 42.624 11.0672 42.4766 11.0057 42.317H14.0028C18.5597 42.317 23.2825 42.3108 27.9193 42.3477C28.2141 42.3477 28.644 42.5565 28.9203 42.8206C32.6973 46.5668 36.505 50.3807 40.196 54.084L42.364 56.2519C43.1624 57.0503 43.973 57.861 44.7653 58.6593L46.0488 59.949L46.3068 59.8446C50.2312 58.1742 54.6469 54.1577 58.1106 49.1033C61.5867 44.0243 63.3616 38.976 62.858 35.5982L62.8088 35.2359Z" fill="url(#paint1_linear_242_1417)"/>
<path d="M59.4946 29.309C57.99 29.309 56.7617 29.2967 55.6316 29.266C54.6429 29.2353 54.1761 27.9579 54.1024 27.614C53.7524 25.9312 53.2426 24.3283 52.5916 22.8666L52.3828 22.3999L54.1086 21.4111L54.3665 21.9884C55.0912 23.6159 55.6562 25.3723 56.037 27.2148C56.0431 27.2393 56.0554 27.27 56.0677 27.3007C57.081 27.3253 58.1926 27.3376 59.5253 27.3376C60.0412 27.3376 61.4353 27.3315 61.4353 27.3315C61.0791 24.5801 60.2684 21.841 59.0217 19.1756C58.2909 17.6034 57.4004 16.0742 56.3809 14.6371C55.3921 13.2246 54.2805 11.9041 53.0768 10.7066L52.7083 10.3381L53.9612 8.8457L54.3972 9.28789C55.7483 10.6451 56.9582 12.0884 58.0084 13.5869C59.0647 15.0731 59.9921 16.6515 60.7659 18.2728C62.3074 21.5339 63.2348 24.881 63.5173 28.2342L63.6094 29.309H61.0668C60.5509 29.309 60.0228 29.309 59.4946 29.309Z" fill="url(#paint2_linear_242_1417)"/>
<path d="M55.7502 27.8545C55.6581 27.7623 55.5168 27.5044 55.4738 27.3202C55.0992 25.5207 54.5588 23.8195 53.8402 22.2105L53.1094 22.6281C53.7911 24.1635 54.3008 25.7848 54.657 27.4921C54.7184 27.7869 55.0869 28.6713 55.6396 28.6897C57.4452 28.7327 59.2815 28.7327 61.0625 28.7265H62.9848L62.948 28.2721C62.6655 24.9496 61.7258 21.6332 60.2519 18.5072C59.4903 16.9165 58.5814 15.375 57.5374 13.9011C56.4933 12.4087 55.3019 10.9962 53.9937 9.67578L53.4779 10.2961C54.7307 11.5366 55.8546 12.8878 56.8495 14.3003C57.8936 15.7804 58.7964 17.328 59.5395 18.9309C60.8967 21.8174 61.7627 24.8636 62.0759 27.8975H61.0687C59.3184 27.9036 57.5189 27.9036 55.7502 27.8545Z" fill="url(#paint3_linear_242_1417)"/>
<path d="M49.9478 18.3618C49.4319 17.6616 48.8731 17.0045 48.2835 16.4026C48.0255 16.1201 47.743 15.8376 47.4298 15.5428C46.4226 14.5848 45.3601 13.7434 44.2854 13.0433C43.5361 12.5458 42.793 12.1098 42.0131 11.7167L41.5586 11.4895L42.2403 9.63477L42.8053 9.91113C43.7327 10.3656 44.6232 10.8815 45.4523 11.4465C46.6376 12.2265 47.7614 13.1231 48.7871 14.1057C49.1064 14.4067 49.3828 14.6892 49.6407 14.9717C50.3286 15.6841 50.9857 16.4579 51.5814 17.2563L51.9622 17.766L50.2426 18.7671L49.9478 18.3618Z" fill="url(#paint4_linear_242_1417)"/>
<path d="M48.3987 14.514C47.3792 13.5375 46.2799 12.6716 45.1376 11.9162C44.3085 11.3512 43.4425 10.8537 42.5582 10.4238L42.2695 11.2099C43.0679 11.6153 43.8417 12.0636 44.5971 12.5672C45.7333 13.3042 46.8081 14.1701 47.8214 15.1282C48.1162 15.4107 48.4171 15.7055 48.6874 16.0064C49.3138 16.6451 49.8849 17.3268 50.4008 18.0269L51.1316 17.597C50.5543 16.8171 49.9218 16.074 49.2278 15.3554C48.9637 15.0606 48.6873 14.7904 48.3987 14.514Z" fill="url(#paint5_linear_242_1417)"/>
<defs>
<linearGradient id="paint0_linear_242_1417" x1="-0.00208809" y1="32.0008" x2="63.5152" y2="32.0008" gradientUnits="userSpaceOnUse">
<stop stop-color="#FAA344"/>
<stop offset="0.3102" stop-color="#F19B2B"/>
<stop offset="0.7523" stop-color="#E7910C"/>
<stop offset="1" stop-color="#E38D00"/>
</linearGradient>
<linearGradient id="paint1_linear_242_1417" x1="0.598442" y1="31.9971" x2="62.9475" y2="31.9971" gradientUnits="userSpaceOnUse">
<stop stop-color="#FAA344"/>
<stop offset="0.3102" stop-color="#F19B2B"/>
<stop offset="0.7523" stop-color="#E7910C"/>
<stop offset="1" stop-color="#E38D00"/>
</linearGradient>
<linearGradient id="paint2_linear_242_1417" x1="52.388" y1="19.0767" x2="63.608" y2="19.0767" gradientUnits="userSpaceOnUse">
<stop stop-color="#FAA344"/>
<stop offset="0.3102" stop-color="#F19B2B"/>
<stop offset="0.7523" stop-color="#E7910C"/>
<stop offset="1" stop-color="#E38D00"/>
</linearGradient>
<linearGradient id="paint3_linear_242_1417" x1="53.1118" y1="19.2085" x2="62.985" y2="19.2085" gradientUnits="userSpaceOnUse">
<stop stop-color="#FAA344"/>
<stop offset="0.3102" stop-color="#F19B2B"/>
<stop offset="0.7523" stop-color="#E7910C"/>
<stop offset="1" stop-color="#E38D00"/>
</linearGradient>
<linearGradient id="paint4_linear_242_1417" x1="41.5606" y1="14.2022" x2="51.9733" y2="14.2022" gradientUnits="userSpaceOnUse">
<stop stop-color="#FAA344"/>
<stop offset="0.3102" stop-color="#F19B2B"/>
<stop offset="0.7523" stop-color="#E7910C"/>
<stop offset="1" stop-color="#E38D00"/>
</linearGradient>
<linearGradient id="paint5_linear_242_1417" x1="42.2689" y1="14.2194" x2="51.1355" y2="14.2194" gradientUnits="userSpaceOnUse">
<stop stop-color="#FAA344"/>
<stop offset="0.3102" stop-color="#F19B2B"/>
<stop offset="0.7523" stop-color="#E7910C"/>
<stop offset="1" stop-color="#E38D00"/>
</linearGradient>
</defs>
</svg>
