<svg width="34" height="37" viewBox="0 0 34 37" fill="none" xmlns="http://www.w3.org/2000/svg">
<path d="M4.80469 14.9415C4.80469 14.1785 5.13715 13.4467 5.72892 12.9071C6.32069 12.3676 7.12331 12.0645 7.96021 12.0645H25.5785C26.4852 12.0645 27.3547 12.3928 27.9957 12.9774C28.6368 13.5619 28.997 14.3547 28.997 15.1813V16.1461C30.8356 16.7388 32.1525 18.3375 32.1525 20.2162V32.6836C32.1525 33.8282 31.6538 34.9259 30.7662 35.7352C29.8785 36.5446 28.6746 36.9992 27.4192 36.9992H9.53797C8.28262 36.9992 7.0787 36.5446 6.19103 35.7352C5.30337 34.9259 4.80469 33.8282 4.80469 32.6836V15.1813H4.81521C4.80809 15.1015 4.80459 15.0216 4.80469 14.9415ZM27.4192 17.8186H6.90837V32.6836C6.90837 33.3195 7.18541 33.9293 7.67856 34.3789C8.17171 34.8286 8.84055 35.0812 9.53797 35.0812H27.4192C28.1166 35.0812 28.7855 34.8286 29.2786 34.3789C29.7718 33.9293 30.0488 33.3195 30.0488 32.6836V20.2162C30.0488 19.5803 29.7718 18.9705 29.2786 18.5209C28.7855 18.0712 28.1166 17.8186 27.4192 17.8186ZM27 15.5C27 14.8383 26.3043 13.9825 25.5785 13.9825H7.96021C7.68124 13.9825 7.4137 14.0836 7.21645 14.2634C7.01919 14.4433 6.93931 14.8728 6.93931 15.1272C6.93931 15.3815 7.05012 15.6254 7.24738 15.8053C7.44464 15.9852 7.68124 16 7.96021 16H27V15.5Z" fill="white"/>
<path d="M22.9956 26.7321C23.1928 26.5522 23.4604 26.4512 23.7393 26.4512H26.8949C27.1738 26.4512 27.4414 26.5522 27.6386 26.7321C27.8359 26.9119 27.9467 27.1559 27.9467 27.4102C27.9467 27.6646 27.8359 27.9085 27.6386 28.0883C27.4414 28.2682 27.1738 28.3692 26.8949 28.3692H23.7393C23.4604 28.3692 23.1928 28.2682 22.9956 28.0883C22.7983 27.9085 22.6875 27.6646 22.6875 27.4102C22.6875 27.1559 22.7983 26.9119 22.9956 26.7321Z" fill="#F89609"/>
<mask id="mask0_10_297" style="mask-type:alpha" maskUnits="userSpaceOnUse" x="0" y="0" width="34" height="16">
<rect width="34" height="16" fill="#C4C4C4"/>
</mask>
<g mask="url(#mask0_10_297)">
<g filter="url(#filter0_f_10_297)">
<path d="M26.0843 16.9071C25.3547 18.7059 23.3043 19.5711 21.5082 18.8418C19.7094 18.1122 18.8441 16.0619 19.5734 14.2658C20.3031 12.4671 22.3506 11.6014 24.1495 12.3311C25.946 13.0576 26.814 15.1083 26.0843 16.9071Z" fill="#FF9802"/>
</g>
<path d="M26.0843 16.909C25.3547 18.7078 23.3043 19.5731 21.5082 18.8438C19.7094 18.1141 18.8441 16.0639 19.5734 14.2678C20.3031 12.469 22.3506 11.6033 24.1495 12.333C25.946 13.0596 26.814 15.1102 26.0843 16.909Z" fill="#EB9518"/>
<path d="M24.5467 15.3896C24.6803 14.9371 24.3652 14.6373 23.9049 14.4028L24.1517 13.7973L23.7847 13.6481L23.5457 14.2381C23.4486 14.1993 23.3487 14.1602 23.2486 14.1238L23.488 13.5311L23.121 13.382L22.8773 13.9851C22.7957 13.9541 22.7169 13.9235 22.6408 13.8933L22.6411 13.8906L22.1324 13.6852L21.9739 14.0787C21.9739 14.0787 22.2473 14.184 22.2415 14.186C22.391 14.246 22.4035 14.3532 22.3865 14.4339L22.1056 15.1233C22.1161 15.1276 22.1293 15.1322 22.1444 15.1427C22.1312 15.138 22.118 15.1334 22.1052 15.126L21.7131 16.0908C21.6875 16.1343 21.6286 16.198 21.5264 16.1558C21.5284 16.1616 21.2588 16.0484 21.2588 16.0484L21.0064 16.459L21.4861 16.6547C21.575 16.6923 21.6616 16.7268 21.7478 16.764L21.5003 17.3749L21.8673 17.524L22.1141 16.9186C22.2135 16.9604 22.3129 17.0023 22.4073 17.0406L22.1636 17.6438L22.5306 17.7929L22.7782 17.182C23.4132 17.397 23.9094 17.4175 24.197 16.8567C24.4299 16.4073 24.295 16.108 23.978 15.88C24.2389 15.8588 24.4499 15.7197 24.5467 15.3896V15.3896ZM23.5005 16.4888C23.3165 16.9451 22.5537 16.5761 22.3047 16.4742L22.6333 15.6641C22.8822 15.766 23.6958 16.0119 23.5005 16.4888ZM23.795 15.2745C23.6249 15.6912 22.993 15.3769 22.786 15.292L23.0843 14.558C23.2913 14.6428 23.9701 14.8418 23.795 15.2745Z" fill="white"/>
<path d="M17.5862 12.32C17.8608 15.2391 15.7152 17.8267 12.7999 18.0999C9.88075 18.3746 7.29322 16.2292 7.01997 13.3139C6.74533 10.3948 8.88695 7.80861 11.8062 7.53398C14.7201 7.25678 17.3115 9.40084 17.5862 12.32Z" fill="#EB9518"/>
<g filter="url(#filter1_f_10_297)">
<path d="M17.5862 12.32C17.8608 15.2391 15.7152 17.8267 12.7999 18.0999C9.88075 18.3746 7.29322 16.2292 7.01997 13.3139C6.74533 10.3948 8.88695 7.80861 11.8062 7.53398C14.7201 7.25678 17.3115 9.40084 17.5862 12.32Z" fill="#FF9700"/>
</g>
<path d="M12.8146 14.3125L10.5858 13.8731L13.3444 15.8229L14.2778 12.575L12.8134 14.3129L12.8146 14.3125ZM11.2603 9.80415L10.4908 13.513L12.7195 13.9545L14.1827 12.2162L11.2603 9.80415Z" fill="white"/>
</g>
<defs>
<filter id="filter0_f_10_297" x="12.3164" y="5.07227" width="21.0273" height="21.0273" filterUnits="userSpaceOnUse" color-interpolation-filters="sRGB">
<feFlood flood-opacity="0" result="BackgroundImageFix"/>
<feBlend mode="normal" in="SourceGraphic" in2="BackgroundImageFix" result="shape"/>
<feGaussianBlur stdDeviation="3.5" result="effect1_foregroundBlur_10_297"/>
</filter>
<filter id="filter1_f_10_297" x="-1.00391" y="-0.490234" width="26.6133" height="26.6133" filterUnits="userSpaceOnUse" color-interpolation-filters="sRGB">
<feFlood flood-opacity="0" result="BackgroundImageFix"/>
<feBlend mode="normal" in="SourceGraphic" in2="BackgroundImageFix" result="shape"/>
<feGaussianBlur stdDeviation="4" result="effect1_foregroundBlur_10_297"/>
</filter>
</defs>
</svg>
