<svg width="137" height="138" viewBox="0 0 137 138" fill="none" xmlns="http://www.w3.org/2000/svg">
<path d="M68.0426 137.684C53.3374 137.684 39.2137 132.901 27.1906 123.864C10.9397 111.656 1.07018 93.6213 0.118905 74.3976L0 72.178H82.1796C83.7122 72.1648 84.9674 71.7288 85.7072 70.9624C86.2489 70.4075 86.5264 69.6677 86.4999 68.7957C86.4603 66.7081 84.8616 65.4794 82.2324 65.4794H0.1057L0.145334 63.3126C1.00412 34.6687 25.7901 2.37819 64.3564 0.132121C65.7569 0.0528486 67.1838 0 68.5843 0C74.6751 0 80.6998 0.779517 86.5132 2.32534C90.3051 3.32946 94.0045 4.6771 97.5189 6.31541C101.179 8.01977 104.72 10.0677 108.036 12.4062L109.119 13.1725L106.45 16.3699L105.525 15.7225C102.487 13.5953 99.2497 11.7192 95.8806 10.1601C92.4586 8.57469 88.8781 7.29311 85.2712 6.34183C79.9467 4.94134 74.3712 4.22789 68.69 4.22789C67.3291 4.22789 65.9418 4.26752 64.5678 4.3468C29.6216 6.39468 6.43431 35.1972 4.4657 61.2119H29.2121C46.8767 61.2119 64.5281 61.2119 82.1928 61.2251C87.1077 61.2251 90.6221 64.2903 90.7146 68.6768C90.7543 70.7246 90.0672 72.5347 88.7328 73.922C87.187 75.4942 84.8617 76.3926 82.1796 76.4191H4.50534C6.02474 93.5288 15.1676 109.516 29.7406 120.455C41.0369 128.937 54.2887 133.429 68.0558 133.429C71.5966 133.429 75.1507 133.126 78.6387 132.518L78.2424 132.108C74.9525 128.805 71.5966 125.423 68.2275 122.173C68.1483 122.12 67.7123 121.948 67.0781 121.908C46.8371 120.785 31.511 111.22 21.5226 93.476C21.2187 92.921 20.9809 92.3661 20.7695 91.8509C20.7166 91.7319 20.6374 91.5602 20.5713 91.3884L20.4524 91.1242L19.2237 88.4025L22.2096 88.1382C22.4475 88.125 22.606 88.1118 22.7381 88.0854L23.0156 88.0722C23.2402 88.059 23.4119 88.0458 23.5969 88.0458L30.1501 88.0325C39.9668 88.0325 50.1137 88.0325 60.1153 88.0986C61.8196 88.0986 63.4712 89.1159 64.3564 89.9879C71.2928 96.8715 78.7841 104.35 88.6403 114.219L93.3042 118.87L99.7517 125.357C115.461 117.747 132.756 93.0135 132.399 78.8369H130.602C129.202 78.8501 127.761 78.8501 126.321 78.8501C124.564 78.8501 122.781 78.8369 121.037 78.7973H120.785C120.693 78.7973 120.627 78.7973 120.574 78.7973C120.548 78.8897 120.508 79.0219 120.468 79.2465C118.169 90.9524 112.475 100.835 103.544 108.617L102.037 109.925L80.898 88.8253L84.7295 88.0061C84.8616 87.9797 85.5223 87.8476 85.6808 87.8079C86.5792 87.6494 87.5701 87.4644 88.5082 87.187C97.5453 84.5445 103.438 75.6924 102.209 66.576C100.875 56.799 92.9211 49.6909 83.2762 49.6777C69.5488 49.638 55.5703 49.638 42.0807 49.638C36.3598 49.6513 30.6522 49.6513 24.9181 49.6513H19.1444L20.4128 46.6785C20.4656 46.52 20.7299 45.899 20.7299 45.899C20.9413 45.3837 21.1394 44.9345 21.3508 44.5117C29.0667 29.5424 43.032 19.3426 59.6661 16.5284C62.6917 16.0263 65.7437 15.7621 68.756 15.7621C72.9179 15.7621 77.0665 16.2509 81.0565 17.2154L82.391 17.5325L80.9244 21.549L79.8675 21.298C76.2341 20.4392 72.4819 20.0032 68.7296 20.0032C65.9551 20.0032 63.1541 20.241 60.3795 20.7034C45.4498 23.227 32.8718 32.198 25.6976 45.3837H42.0807C47.7355 45.3705 53.4696 45.3705 59.2301 45.3705C67.2366 45.3705 75.2961 45.3837 83.2762 45.3969C95.0747 45.4102 104.812 54.0641 106.411 65.9815C107.917 77.159 100.729 88.0193 89.6973 91.2299C89.6048 91.2563 89.5255 91.2827 89.433 91.3092L102.196 104.046C109.555 97.1093 114.298 88.4818 116.28 78.3745C116.809 75.732 118.275 74.4901 120.878 74.4901H121.142C122.873 74.5297 124.643 74.5429 126.401 74.5429C127.801 74.5429 129.202 74.5297 130.576 74.5297H136.178L136.442 76.3398C137.565 83.8971 133.681 95.0878 126.017 106.252C118.447 117.311 108.749 126.11 100.095 129.796L98.774 130.338L95.4446 126.982C93.7402 125.264 91.9962 123.52 90.2786 121.803L85.6147 117.139C78.5594 110.057 69.7734 101.258 61.3572 92.9211C60.9476 92.5247 60.3135 92.2604 60.0756 92.2604C52.9411 92.2076 45.5819 92.1944 38.7116 92.1944H25.7241C34.9726 108.036 48.951 116.571 67.3027 117.588C69.0335 117.72 70.3283 118.209 71.1871 119.041C73.9748 121.737 76.7758 124.538 79.4843 127.259L81.2547 129.03L83.765 131.553C84.0161 131.804 84.1878 132.069 84.3067 132.254L84.4124 132.412L84.4521 132.491L86.2357 135.107L83.2365 135.808C78.2952 137.089 73.1689 137.684 68.0426 137.684Z" fill="url(#paint0_linear_132_725)"/>
<path d="M135.118 75.8063H130.573C127.455 75.8196 124.244 75.8328 121.087 75.7799C118.893 75.7139 117.889 76.533 117.466 78.6602C115.353 89.4149 110.2 98.5444 102.14 105.785L86.9861 90.6568C87.7127 90.5115 88.5319 90.3397 89.3378 90.1019C99.8018 87.0499 106.606 76.7708 105.179 66.1879C103.66 54.9047 94.4377 46.6868 83.247 46.6736C69.5196 46.6471 55.5411 46.6471 42.0515 46.6603H23.6999C23.8188 46.3829 23.9112 46.1583 24.0302 45.9205C31.2836 31.8099 44.4562 22.2047 60.1522 19.549C66.9432 18.3996 73.6946 18.6242 80.129 20.1568L80.7499 18.4524C74.0382 16.8273 66.9564 16.5763 59.8483 17.7786C43.5841 20.5399 29.9492 30.4887 22.4183 45.1013C22.2201 45.4977 22.0351 45.9205 21.8502 46.3961C21.7577 46.6471 21.6388 46.8982 21.5199 47.202L20.9782 48.4704H24.9022C30.623 48.4704 36.3307 48.4704 42.0515 48.4572C55.5543 48.4572 69.5196 48.4572 83.247 48.4836C93.5129 48.4968 101.982 56.0674 103.382 66.4389C104.69 76.1367 98.4278 85.5833 88.8225 88.3843C87.8184 88.675 86.7747 88.8732 85.9159 89.0185C85.5592 89.0978 85.2288 89.1506 84.9514 89.2167L83.3263 89.5602L102.061 108.255L102.695 107.7C111.415 100.09 116.978 90.4322 119.224 79.0169C119.488 77.6693 119.792 77.5371 121.034 77.5768C124.218 77.6428 127.442 77.6296 130.586 77.6032H133.532C134.946 92.3215 116.383 119.208 99.4715 126.818L97.5822 124.916C95.8778 123.198 94.1338 121.454 92.4163 119.71L87.7524 115.046C79.8119 107.093 71.5939 98.8748 63.4816 90.8153C62.7153 90.0622 61.3677 89.2695 60.0861 89.2695C50.0977 89.2035 39.9508 89.2035 30.1342 89.2035L23.5677 89.2167C23.3563 89.2167 23.1582 89.2299 22.8411 89.2431C22.6957 89.2563 22.5108 89.2695 22.2862 89.2959L21.0046 89.4149L21.5331 90.5775C21.652 90.8418 21.7445 91.0796 21.8634 91.3306C22.0748 91.8591 22.2862 92.348 22.5504 92.8236C32.3274 110.198 47.3232 119.539 67.115 120.635C67.9473 120.688 68.7269 120.926 69.044 121.243C72.4395 124.52 75.8218 127.915 79.0852 131.205L81.1066 133.24C63.0853 137.071 44.1523 132.79 28.9847 121.401C13.7115 109.933 4.34406 93.1275 3.16818 75.1722H82.1768C84.5286 75.1457 86.5501 74.3794 87.8713 73.045C88.9811 71.8955 89.5492 70.3894 89.5096 68.685C89.4303 64.946 86.4972 62.4356 82.2165 62.4356C64.5518 62.4224 46.9004 62.4224 29.2357 62.4224H3.1946C4.5026 35.3772 28.0731 5.24026 64.5254 3.1131C72.0167 2.66389 79.072 3.43019 85.5988 5.14777C89.3907 6.12547 92.9976 7.44669 96.4195 9.03214C99.8943 10.6572 103.171 12.5598 106.249 14.7134L107.346 13.4054C104.069 11.0932 100.608 9.0982 97.0141 7.42026C93.5393 5.79517 89.9059 4.48716 86.2065 3.49625C79.2305 1.64655 71.8978 0.89346 64.4197 1.32946C26.5273 3.5491 2.19048 35.2186 1.35811 63.3076L1.34489 64.2325H82.2165C85.5459 64.2325 87.6599 65.9765 87.7127 68.7378C87.7391 69.9401 87.356 70.9971 86.5765 71.7898C85.5988 72.8072 84.0397 73.3621 82.1636 73.3753H1.26562L1.31847 74.3134C2.25654 93.1803 11.941 110.871 27.9013 122.868C39.7394 131.773 53.8104 136.45 68.0134 136.45C72.9944 136.45 78.0018 135.882 82.9431 134.693L84.2115 134.402L83.4716 133.319C83.4188 133.24 83.3791 133.173 83.3395 133.107C83.2074 132.909 83.0753 132.685 82.8771 132.486L80.3668 129.963C77.0901 126.686 73.7078 123.278 70.3123 119.988C69.3743 119.089 67.8417 118.918 67.2075 118.878C48.0631 117.834 33.5693 108.771 24.1226 91.978C23.9641 91.7006 23.8056 91.3835 23.6734 91.04H30.121C39.9244 91.04 50.0845 91.0267 60.0597 91.106C60.6939 91.106 61.6187 91.5552 62.2133 92.1234C70.3388 100.183 78.5303 108.388 86.4708 116.354L91.1347 121.018C92.8523 122.736 94.5962 124.48 96.3006 126.197L99.062 128.972L99.6169 128.747C108.059 125.154 117.559 116.513 125.011 105.639C132.489 94.7129 136.307 83.8525 135.224 76.5859L135.118 75.8063Z" fill="url(#paint1_linear_132_725)"/>
<path d="M128.007 63.0463C124.77 63.0463 122.127 63.0199 119.696 62.9538C117.569 62.8878 116.565 60.1396 116.406 59.3998C115.653 55.7796 114.557 52.3313 113.156 49.1868L112.707 48.1827L116.42 46.0555L116.975 47.2974C118.534 50.7987 119.749 54.5773 120.568 58.541C120.581 58.5938 120.608 58.6599 120.634 58.726C122.814 58.7788 125.206 58.8052 128.073 58.8052C129.183 58.8052 132.182 58.792 132.182 58.792C131.415 52.873 129.671 46.9803 126.989 41.2463C125.417 37.864 123.501 34.5741 121.308 31.4825C119.181 28.4437 116.79 25.6031 114.2 23.0267L113.407 22.234L116.103 19.0234L117.041 19.9747C119.947 22.8946 122.55 25.9995 124.809 29.2232C127.082 32.4206 129.077 35.8161 130.742 39.3041C134.058 46.3197 136.053 53.5204 136.661 60.7342L136.859 63.0463H131.389C130.279 63.0463 129.143 63.0463 128.007 63.0463Z" fill="url(#paint2_linear_132_725)"/>
<path d="M119.962 59.9283C119.764 59.7301 119.46 59.1752 119.368 58.7788C118.562 54.9077 117.399 51.2479 115.853 47.7863L114.281 48.6847C115.748 51.9878 116.844 55.4758 117.611 59.1488C117.743 59.7829 118.536 61.6855 119.725 61.7251C123.609 61.8176 127.559 61.8176 131.391 61.8044H135.526L135.447 60.8267C134.839 53.6789 132.818 46.5444 129.647 39.8194C128.009 36.3974 126.053 33.0812 123.807 29.9103C121.561 26.6997 118.998 23.6609 116.184 20.8203L115.074 22.1547C117.769 24.8236 120.187 27.7303 122.327 30.7691C124.574 33.9532 126.516 37.2826 128.114 40.731C131.034 46.9407 132.897 53.494 133.571 60.0208H131.404C127.639 60.034 123.768 60.034 119.962 59.9283Z" fill="url(#paint3_linear_132_725)"/>
<path d="M107.454 39.4991C106.344 37.9929 105.142 36.5792 103.874 35.2844C103.319 34.6766 102.711 34.0689 102.037 33.4347C99.8703 31.3736 97.5846 29.5635 95.2724 28.0574C93.6605 26.9872 92.0619 26.0491 90.3839 25.2035L89.4062 24.7147L90.8728 20.7246L92.0883 21.3192C94.0833 22.2969 95.9991 23.4067 97.7827 24.6222C100.333 26.3001 102.751 28.2291 104.957 30.3431C105.644 30.9904 106.239 31.5982 106.793 32.206C108.273 33.7386 109.687 35.4033 110.968 37.1209L111.788 38.2175L108.088 40.3711L107.454 39.4991Z" fill="url(#paint4_linear_132_725)"/>
<path d="M104.127 31.2309C101.934 29.1302 99.5689 27.2673 97.1115 25.6422C95.3278 24.4267 93.4649 23.3565 91.5624 22.4316L90.9414 24.1228C92.659 24.9948 94.3237 25.9593 95.9488 27.0427C98.3931 28.6281 100.705 30.4911 102.885 32.5521C103.519 33.1599 104.167 33.7941 104.748 34.4415C106.096 35.8155 107.324 37.2821 108.434 38.7883L110.007 37.8634C108.765 36.1855 107.404 34.5868 105.911 33.041C105.343 32.4068 104.748 31.8255 104.127 31.2309Z" fill="url(#paint5_linear_132_725)"/>
<defs>
<linearGradient id="paint0_linear_132_725" x1="-0.00449213" y1="68.8436" x2="136.641" y2="68.8436" gradientUnits="userSpaceOnUse">
<stop stop-color="#FAA344"/>
<stop offset="0.3102" stop-color="#F19B2B"/>
<stop offset="0.7523" stop-color="#E7910C"/>
<stop offset="1" stop-color="#E38D00"/>
</linearGradient>
<linearGradient id="paint1_linear_132_725" x1="1.28412" y1="68.8387" x2="135.416" y2="68.8387" gradientUnits="userSpaceOnUse">
<stop stop-color="#FAA344"/>
<stop offset="0.3102" stop-color="#F19B2B"/>
<stop offset="0.7523" stop-color="#E7910C"/>
<stop offset="1" stop-color="#E38D00"/>
</linearGradient>
<linearGradient id="paint2_linear_132_725" x1="112.718" y1="41.0334" x2="136.856" y2="41.0334" gradientUnits="userSpaceOnUse">
<stop stop-color="#FAA344"/>
<stop offset="0.3102" stop-color="#F19B2B"/>
<stop offset="0.7523" stop-color="#E7910C"/>
<stop offset="1" stop-color="#E38D00"/>
</linearGradient>
<linearGradient id="paint3_linear_132_725" x1="114.287" y1="41.3282" x2="135.527" y2="41.3282" gradientUnits="userSpaceOnUse">
<stop stop-color="#FAA344"/>
<stop offset="0.3102" stop-color="#F19B2B"/>
<stop offset="0.7523" stop-color="#E7910C"/>
<stop offset="1" stop-color="#E38D00"/>
</linearGradient>
<linearGradient id="paint4_linear_132_725" x1="89.4106" y1="30.5506" x2="111.811" y2="30.5506" gradientUnits="userSpaceOnUse">
<stop stop-color="#FAA344"/>
<stop offset="0.3102" stop-color="#F19B2B"/>
<stop offset="0.7523" stop-color="#E7910C"/>
<stop offset="1" stop-color="#E38D00"/>
</linearGradient>
<linearGradient id="paint5_linear_132_725" x1="90.94" y1="30.597" x2="110.015" y2="30.597" gradientUnits="userSpaceOnUse">
<stop stop-color="#FAA344"/>
<stop offset="0.3102" stop-color="#F19B2B"/>
<stop offset="0.7523" stop-color="#E7910C"/>
<stop offset="1" stop-color="#E38D00"/>
</linearGradient>
</defs>
</svg>
