<svg width="33" height="33" viewBox="0 0 33 33" fill="none" xmlns="http://www.w3.org/2000/svg">
<path d="M16.035 0C7.194 0 0 7.192 0 16.034C0 24.876 7.194 32.068 16.035 32.068C24.876 32.068 32.07 24.876 32.07 16.034C32.07 7.192 24.876 0 16.035 0ZM16.035 31C7.783 31 1.07 24.286 1.07 16.034C1.07 7.782 7.783 1.068 16.035 1.068C24.287 1.068 31 7.782 31 16.034C31 24.286 24.287 31 16.035 31Z" fill="white"/>
<path d="M24.8279 11.08C24.9388 10.8747 25.0302 10.6594 25.1009 10.437C25.1336 10.3338 25.1343 10.2232 25.1028 10.1196C25.0713 10.0161 25.0091 9.92452 24.9245 9.85703C24.8399 9.78954 24.7368 9.7493 24.6289 9.74162C24.5209 9.73393 24.4132 9.75917 24.3199 9.814C23.8075 10.1184 23.2528 10.3452 22.6739 10.487C21.9711 9.85277 21.0585 9.50118 20.1119 9.5C19.5976 9.5004 19.0887 9.60463 18.6157 9.80646C18.1426 10.0083 17.7152 10.3036 17.3591 10.6746C17.0029 11.0456 16.7254 11.4847 16.543 11.9655C16.3607 12.4464 16.2773 12.9591 16.2979 13.473C14.0489 13.1899 11.9952 12.0518 10.5629 10.295C10.508 10.2284 10.4379 10.1761 10.3584 10.1425C10.279 10.1088 10.1926 10.0948 10.1066 10.1017C10.0206 10.1086 9.93758 10.1361 9.8645 10.1819C9.79143 10.2278 9.73049 10.2906 9.68688 10.365C9.3589 10.9279 9.18064 11.5655 9.16908 12.2169C9.15753 12.8683 9.31307 13.5118 9.62088 14.086C9.54539 14.0987 9.47286 14.1252 9.40688 14.164C9.32603 14.2156 9.25946 14.2866 9.21332 14.3707C9.16718 14.4548 9.14296 14.5491 9.14288 14.645C9.14288 15.78 9.64788 16.822 10.4619 17.53L10.4269 17.565C10.3654 17.6345 10.3231 17.7188 10.3042 17.8097C10.2853 17.9005 10.2903 17.9947 10.3189 18.083C10.4886 18.6125 10.772 19.0986 11.1493 19.5071C11.5265 19.9156 11.9885 20.2367 12.5029 20.448C11.4465 20.9633 10.2642 21.1643 9.09688 21.027C8.97688 21.0148 8.85622 21.0427 8.7538 21.1064C8.65137 21.1701 8.57297 21.266 8.53088 21.379C8.49046 21.4929 8.4897 21.6171 8.52873 21.7314C8.56775 21.8458 8.64428 21.9436 8.74588 22.009C10.3329 23.0276 12.1791 23.5687 14.0649 23.568C20.2449 23.568 23.9389 18.548 23.9389 13.695L23.9379 13.531C24.5368 13.0634 25.0571 12.503 25.4789 11.871C25.5428 11.7755 25.5742 11.6619 25.5685 11.5471C25.5628 11.4323 25.5202 11.3224 25.4472 11.2337C25.3742 11.1449 25.2745 11.0821 25.163 11.0544C25.0514 11.0267 24.9339 11.0357 24.8279 11.08ZM23.0829 12.835C23.0103 12.8872 22.952 12.9567 22.9132 13.0372C22.8744 13.1178 22.8564 13.2067 22.8609 13.296C22.8669 13.428 22.8699 13.562 22.8699 13.694C22.8699 18.022 19.5769 22.499 14.0659 22.499C13.083 22.4995 12.107 22.3345 11.1789 22.011C12.2905 21.798 13.3347 21.3213 14.2239 20.621C14.3104 20.5528 14.3738 20.4594 14.4053 20.3538C14.4368 20.2482 14.4349 20.1354 14.3999 20.0309C14.3649 19.9264 14.2984 19.8352 14.2097 19.7699C14.1209 19.7046 14.0141 19.6683 13.9039 19.666C13.4727 19.6578 13.0495 19.5483 12.6684 19.3465C12.2873 19.1446 11.959 18.856 11.7099 18.504C11.9629 18.487 12.2109 18.445 12.4519 18.38C12.5685 18.3488 12.6711 18.279 12.743 18.1819C12.8148 18.0849 12.8517 17.9664 12.8475 17.8457C12.8433 17.725 12.7984 17.6093 12.72 17.5175C12.6416 17.4256 12.5344 17.3631 12.4159 17.34C11.9289 17.2409 11.478 17.0114 11.1115 16.6758C10.7449 16.3402 10.4765 15.9114 10.3349 15.435C10.6009 15.502 10.8739 15.541 11.1469 15.55C11.3819 15.549 11.5999 15.405 11.6729 15.179C11.7459 14.953 11.6599 14.704 11.4609 14.572C10.9904 14.2585 10.6281 13.8074 10.4235 13.2803C10.2189 12.7532 10.182 12.1758 10.3179 11.627C12.0549 13.4093 14.4004 14.4707 16.8859 14.599C17.0619 14.6 17.2159 14.537 17.3229 14.408C17.4299 14.279 17.4709 14.108 17.4329 13.944C17.2961 13.355 17.3573 12.7373 17.6069 12.1866C17.8566 11.6359 18.2808 11.1828 18.8139 10.8974C19.347 10.6121 19.9593 10.5104 20.556 10.6081C21.1527 10.7059 21.7006 10.9975 22.1149 11.438C22.177 11.5042 22.2549 11.5536 22.3413 11.5814C22.4277 11.6092 22.5198 11.6146 22.6089 11.597C22.7739 11.564 22.9369 11.526 23.0979 11.482C23.0253 11.5363 22.9499 11.5867 22.8719 11.633C22.7682 11.6965 22.6892 11.7935 22.648 11.9079C22.6068 12.0223 22.6058 12.1473 22.6451 12.2624C22.6845 12.3774 22.7619 12.4757 22.8645 12.5409C22.9672 12.606 23.089 12.6343 23.2099 12.621L23.3919 12.598C23.2917 12.6806 23.1886 12.7596 23.0829 12.835Z" fill="white"/>
</svg>