<svg width="33" height="32" viewBox="0 0 33 32" fill="none" xmlns="http://www.w3.org/2000/svg">
<path d="M16.001 0C7.17875 0 0 7.17675 0 16C0 24.8233 7.17875 32 16.001 32C24.8232 32 32.002 24.8233 32.002 16C32.002 7.17675 24.8232 0 16.001 0ZM16.001 30.9343C7.7665 30.9343 1.06773 24.2345 1.06773 16C1.06773 7.7655 7.7665 1.06574 16.001 1.06574C24.2355 1.06574 30.9343 7.7655 30.9343 16C30.9343 24.2345 24.2355 30.9343 16.001 30.9343Z" fill="white"/>
<path d="M19.4937 7.01956H16.8314C13.4406 6.98564 13.0075 9.08418 13.0075 11.3553V13.0068H11.5107C11.443 12.9978 11.3742 13.0045 11.3095 13.0264C11.2449 13.0482 11.1861 13.0847 11.1379 13.133C11.0896 13.1813 11.0531 13.24 11.0312 13.3046C11.0094 13.3693 11.0027 13.4381 11.0117 13.5058V16.4994C11.0027 16.5671 11.0094 16.6359 11.0312 16.7006C11.0531 16.7652 11.0896 16.8239 11.1379 16.8722C11.1861 16.9205 11.2449 16.957 11.3095 16.9788C11.3742 17.0007 11.443 17.0074 11.5107 16.9984H13.0075V24.4825C12.9992 24.5502 13.0065 24.619 13.0288 24.6835C13.0511 24.7481 13.0879 24.8066 13.1363 24.8548C13.1848 24.9029 13.2435 24.9394 13.3082 24.9613C13.3729 24.9832 13.4417 24.9901 13.5094 24.9814H16.5579C16.8523 25.0153 17.0908 24.7768 16.997 24.4825L16.999 16.9984H19.4937C19.5614 17.0074 19.6302 17.0007 19.6948 16.9788C19.7595 16.957 19.8182 16.9205 19.8665 16.8722C19.9147 16.8239 19.9512 16.7652 19.9731 16.7006C19.995 16.6359 20.0017 16.5671 19.9926 16.4994V13.5058C20.0017 13.4381 19.995 13.3693 19.9731 13.3046C19.9512 13.24 19.9147 13.1813 19.8665 13.133C19.8182 13.0847 19.7595 13.0482 19.6948 13.0264C19.6302 13.0045 19.5614 12.9978 19.4937 13.0068H16.996L16.999 11.51C17.0958 10.8724 17.0958 10.9762 17.6875 11.0111H19.4727C19.6114 10.9801 19.7591 10.9971 19.8629 10.8963C19.9667 10.7955 20.0266 10.6578 19.9916 10.5121V7.5185C20.0009 7.4509 19.9943 7.38209 19.9726 7.31743C19.9508 7.25276 19.9144 7.194 19.8662 7.14571C19.818 7.09742 19.7594 7.06091 19.6947 7.03903C19.6301 7.01715 19.5613 7.01049 19.4937 7.01956ZM18.9598 9.95732L17.7085 9.90942C16.1588 9.90942 16.0291 10.7506 16.0291 11.6118L16.0251 13.5038C16.0249 13.5738 16.0386 13.6432 16.0653 13.708C16.0921 13.7728 16.1313 13.8316 16.1808 13.8812C16.2303 13.9308 16.2891 13.9702 16.3538 13.997C16.4185 14.0238 16.4879 14.0376 16.5579 14.0376H18.9948V15.9656H16.5599C16.4185 15.9656 16.2829 16.0217 16.1828 16.1216C16.0827 16.2215 16.0263 16.357 16.0261 16.4984L16.0251 23.9835H14.0054V16.4994C14.0054 16.205 13.8048 15.9665 13.5094 15.9665H12.0096V14.0386H13.5094C13.5794 14.0388 13.6488 14.0251 13.7135 13.9983C13.7782 13.9716 13.837 13.9324 13.8866 13.883C13.9864 13.7822 14.0044 13.6465 14.0044 13.5048V11.3544C14.0044 9.11711 14.4564 8.05137 16.8304 8.05137H18.9588V9.95732H18.9598Z" fill="white"/>
</svg>