<svg width="1272" height="782" viewBox="0 0 1272 782" fill="none" xmlns="http://www.w3.org/2000/svg">
<line y1="-0.5" x2="781" y2="-0.5" transform="matrix(4.37114e-08 1 1 -4.37114e-08 1271.84 0)" stroke="#363636"/>
<line y1="-0.5" x2="781" y2="-0.5" transform="matrix(4.37114e-08 1 1 -4.37114e-08 1108.23 0)" stroke="#363636"/>
<line y1="-0.5" x2="781" y2="-0.5" transform="matrix(4.37114e-08 1 1 -4.37114e-08 944.613 0)" stroke="#363636"/>
<line y1="-0.5" x2="781" y2="-0.5" transform="matrix(4.37114e-08 1 1 -4.37114e-08 781 0)" stroke="#363636"/>
<line y1="-0.5" x2="781" y2="-0.5" transform="matrix(4.37114e-08 1 1 -4.37114e-08 617.383 0)" stroke="#363636"/>
<line y1="-0.5" x2="781" y2="-0.5" transform="matrix(4.37114e-08 1 1 -4.37114e-08 453.77 0)" stroke="#363636"/>
<line y1="-0.5" x2="781" y2="-0.5" transform="matrix(4.37114e-08 1 1 -4.37114e-08 290.156 0)" stroke="#363636"/>
<line y1="-0.5" x2="781" y2="-0.5" transform="matrix(1 -8.74228e-08 -8.74228e-08 -1 0 290.158)" stroke="#363636"/>
<line y1="-0.5" x2="781" y2="-0.5" transform="matrix(1 -8.74228e-08 -8.74228e-08 -1 0 453.773)" stroke="#363636"/>
<line y1="-0.5" x2="781" y2="-0.5" transform="matrix(1 -8.74228e-08 -8.74228e-08 -1 0 617.387)" stroke="#363636"/>
<line y1="-0.5" x2="781" y2="-0.5" transform="matrix(1 -8.74228e-08 -8.74228e-08 -1 0 781)" stroke="#363636"/>
</svg>
