<svg width="20" height="20" viewBox="0 0 20 20" fill="none" xmlns="http://www.w3.org/2000/svg">
<path fill-rule="evenodd" clip-rule="evenodd" d="M7.28839 6.8371H10.9321V8.65209C11.457 7.60823 12.803 6.67032 14.825 6.67032C18.7012 6.67032 19.6215 8.74823 19.6215 12.5607V19.6215H15.6972V13.4289C15.6972 11.2578 15.1723 10.0334 13.8361 10.0334C11.9828 10.0334 11.2127 11.353 11.2127 13.428V19.6215H7.28839V6.8371ZM0.559212 19.4547H4.48351V6.67032H0.559212V19.4547ZM5.04566 2.50174C5.04581 2.83067 4.98057 3.15634 4.85375 3.45984C4.72693 3.76334 4.54105 4.0386 4.30691 4.26963C3.83247 4.74116 3.19026 5.0051 2.52136 5.00348C1.85363 5.00303 1.21291 4.73976 0.737767 4.27061C0.504479 4.0388 0.319227 3.76323 0.192628 3.45969C0.0660277 3.15615 0.000568171 2.83062 0 2.50174C0 1.83755 0.26489 1.20182 0.738748 0.732862C1.21348 0.263083 1.85446 -0.000293548 2.52234 2.45528e-07C3.19143 2.45528e-07 3.83305 0.263909 4.30691 0.732862C4.77979 1.20182 5.04566 1.83755 5.04566 2.50174Z" fill="url(#paint0_linear_91_907)"/>
<defs>
<linearGradient id="paint0_linear_91_907" x1="0" y1="0" x2="19.6215" y2="23.5458" gradientUnits="userSpaceOnUse">
<stop stop-color="#2B6FC7"/>
<stop offset="1" stop-color="#2B6FC7" stop-opacity="0"/>
</linearGradient>
</defs>
</svg>
