<svg width="45" height="45" viewBox="0 0 45 45" fill="none" xmlns="http://www.w3.org/2000/svg">
<path d="M22.0137 44.5446C17.2562 44.5446 12.6867 42.9972 8.79692 40.0735C3.53928 36.1238 0.346233 30.2891 0.0384689 24.0697L0 23.3516H26.5874C27.0832 23.3473 27.4893 23.2063 27.7287 22.9583C27.9039 22.7788 27.9937 22.5394 27.9852 22.2573C27.9723 21.582 27.4551 21.1844 26.6045 21.1844H0.0341968L0.0470198 20.4834C0.324862 11.2163 8.34383 0.76941 20.8211 0.042745C21.2742 0.017098 21.7358 0 22.1889 0C24.1595 0 26.1087 0.252196 27.9894 0.752312C29.2162 1.07717 30.4131 1.51317 31.5501 2.04321C32.7341 2.59462 33.8797 3.25717 34.9526 4.01376L35.3031 4.26168L34.4397 5.29611L34.1404 5.08666C33.1573 4.39846 32.1101 3.79148 31.0201 3.28709C29.913 2.77415 28.7546 2.35953 27.5876 2.05176C25.865 1.59866 24.0612 1.36784 22.2231 1.36784C21.7829 1.36784 21.334 1.38066 20.8895 1.40631C9.58343 2.06886 2.08168 11.3873 1.44478 19.8038H9.45092C15.1659 19.8038 20.8767 19.8038 26.5917 19.808C28.1818 19.808 29.3188 20.7997 29.3487 22.2189C29.3616 22.8814 29.1393 23.467 28.7076 23.9158C28.2074 24.4245 27.4551 24.7152 26.5874 24.7237H1.4576C1.94917 30.2592 4.90713 35.4313 9.6219 38.9706C13.2766 41.7149 17.5639 43.1682 22.018 43.1682C23.1635 43.1682 24.3134 43.0699 25.4418 42.8733L25.3136 42.7407C24.2492 41.6721 23.1635 40.5778 22.0735 39.5263C22.0479 39.5092 21.9068 39.4537 21.7016 39.4408C15.1531 39.0775 10.1947 35.9828 6.96316 30.2421C6.86485 30.0626 6.78791 29.883 6.71951 29.7163C6.70242 29.6779 6.67677 29.6223 6.6554 29.5667L6.61693 29.4812L6.2194 28.6007L7.18544 28.5152C7.26238 28.5109 7.31367 28.5067 7.35642 28.4981L7.44618 28.4938C7.51885 28.4896 7.57441 28.4853 7.63426 28.4853L9.75441 28.481C12.9304 28.481 16.2132 28.481 19.449 28.5024C20.0004 28.5024 20.5347 28.8315 20.8211 29.1136C23.0652 31.3406 25.4889 33.76 28.6776 36.9531L30.1865 38.4577L32.2725 40.5565C37.3549 38.0944 42.9502 30.0925 42.8348 25.506H42.2534C41.8004 25.5102 41.3344 25.5102 40.8685 25.5102C40.3 25.5102 39.7229 25.506 39.1587 25.4931H39.0775C39.0476 25.4931 39.0262 25.4931 39.0091 25.4931C39.0006 25.5231 38.9877 25.5658 38.9749 25.6385C38.2311 29.4257 36.3888 32.623 33.4993 35.1407L33.012 35.5639L26.1728 28.7375L27.4124 28.4725C27.4551 28.4639 27.6688 28.4212 27.7201 28.4083C28.0108 28.357 28.3314 28.2972 28.6349 28.2074C31.5586 27.3525 33.4651 24.4886 33.0675 21.5392C32.6358 18.3761 30.0626 16.0764 26.9422 16.0721C22.501 16.0593 17.9786 16.0593 13.6143 16.0593C11.7634 16.0636 9.91684 16.0636 8.06171 16.0636H6.19375L6.60411 15.1018C6.62121 15.0505 6.70669 14.8496 6.70669 14.8496C6.77508 14.6829 6.8392 14.5376 6.90759 14.4008C9.4039 9.55779 13.9221 6.25787 19.3036 5.3474C20.2825 5.18497 21.2699 5.09948 22.2445 5.09948C23.591 5.09948 24.9332 5.25764 26.2241 5.56968L26.6558 5.67226L26.1813 6.97171L25.8394 6.8905C24.6639 6.61265 23.4499 6.4716 22.236 6.4716C21.3383 6.4716 20.4321 6.54854 19.5345 6.69814C14.7043 7.51457 10.635 10.417 8.31391 14.6829H13.6143C15.4438 14.6786 17.2989 14.6786 19.1626 14.6786C21.7529 14.6786 24.3604 14.6829 26.9422 14.6872C30.7593 14.6915 33.9096 17.4913 34.4268 21.3469C34.9141 24.9631 32.5888 28.4767 29.0196 29.5154C28.9897 29.524 28.964 29.5325 28.9341 29.5411L33.0633 33.6617C35.4442 31.4176 36.9787 28.6263 37.6199 25.3563C37.7909 24.5014 38.2653 24.0996 39.1074 24.0996H39.1929C39.7529 24.1125 40.3257 24.1167 40.8942 24.1167C41.3473 24.1167 41.8004 24.1125 42.2449 24.1125H44.0573L44.1428 24.6981C44.5061 27.1431 43.2494 30.7636 40.7702 34.3755C38.3209 37.9533 35.1834 40.8001 32.3836 41.9927L31.9562 42.168L30.879 41.0822C30.3276 40.5266 29.7634 39.9623 29.2077 39.4066L27.6988 37.8977C25.4162 35.6066 22.5736 32.7598 19.8508 30.0626C19.7183 29.9343 19.5131 29.8488 19.4362 29.8488C17.1279 29.8317 14.747 29.8275 12.5243 29.8275H8.32245C11.3146 34.9526 15.837 37.7139 21.7743 38.0431C22.3343 38.0858 22.7532 38.244 23.031 38.5133C23.9329 39.3853 24.8391 40.2915 25.7154 41.172L26.2882 41.7448L27.1003 42.5612C27.1816 42.6424 27.2371 42.7279 27.2756 42.7878L27.3098 42.8391L27.3226 42.8647L27.8997 43.7111L26.9294 43.9376C25.3307 44.3522 23.6722 44.5446 22.0137 44.5446Z" fill="url(#paint0_linear_292_1397)"/>
<path d="M43.7151 24.525H42.2447C41.2359 24.5292 40.1972 24.5335 39.1756 24.5164C38.466 24.495 38.1412 24.7601 38.0044 25.4483C37.3205 28.9277 35.6534 31.8814 33.046 34.2238L28.1431 29.3295C28.3782 29.2825 28.6432 29.2269 28.904 29.15C32.2894 28.1626 34.4908 24.837 34.0291 21.4131C33.5375 17.7627 30.5539 15.104 26.9334 15.0997C22.4922 15.0911 17.9698 15.0911 13.6055 15.0954H7.66826C7.70673 15.0057 7.73665 14.933 7.77512 14.856C10.1218 10.2909 14.3835 7.18332 19.4616 6.32414C21.6587 5.95226 23.843 6.02493 25.9247 6.52077L26.1256 5.96936C23.9541 5.44359 21.663 5.36238 19.3633 5.75136C14.1014 6.64473 9.6901 9.86343 7.25363 14.591C7.18951 14.7193 7.12967 14.856 7.06983 15.0099C7.03991 15.0911 7.00144 15.1724 6.96297 15.2707L6.78771 15.681H8.05724C9.9081 15.681 11.7547 15.681 13.6055 15.6767C17.9741 15.6767 22.4922 15.6767 26.9334 15.6853C30.2547 15.6896 32.9947 18.1389 33.4478 21.4943C33.871 24.6318 31.8448 27.6881 28.7373 28.5943C28.4124 28.6883 28.0747 28.7524 27.7969 28.7995C27.6815 28.8251 27.5746 28.8422 27.4848 28.8636L26.9591 28.9747L33.0203 35.0231L33.2255 34.8436C36.0467 32.3815 37.8462 29.2568 38.5729 25.5637C38.6584 25.1277 38.7567 25.0849 39.1585 25.0977C40.1887 25.1191 41.2317 25.1148 42.249 25.1063H43.2022C43.6596 29.8681 37.6539 38.5667 32.1825 41.0288L31.5713 40.4133C31.0199 39.8576 30.4556 39.2934 29.8999 38.7291L28.391 37.2202C25.8221 34.647 23.1633 31.9882 20.5388 29.3808C20.2909 29.1372 19.8549 28.8807 19.4402 28.8807C16.2087 28.8593 12.9259 28.8593 9.74995 28.8593L7.62552 28.8636C7.55713 28.8636 7.49301 28.8679 7.39042 28.8721C7.3434 28.8764 7.28356 28.8807 7.21089 28.8892L6.79626 28.9277L6.96724 29.3039C7.00571 29.3893 7.03563 29.4663 7.0741 29.5475C7.1425 29.7185 7.21089 29.8766 7.29638 30.0305C10.4595 35.6515 15.3111 38.6736 21.7143 39.0284C21.9836 39.0454 22.2358 39.1224 22.3384 39.225C23.4369 40.2851 24.5312 41.3836 25.587 42.448L26.241 43.1062C20.4105 44.3458 14.2852 42.9609 9.37806 39.2763C4.43674 35.566 1.40612 30.1288 1.02569 24.3198H26.5872C27.3481 24.3112 28.0021 24.0633 28.4295 23.6316C28.7886 23.2597 28.9724 22.7724 28.9596 22.221C28.9339 21.0113 27.985 20.1992 26.6 20.1992C20.885 20.1949 15.1743 20.1949 9.45928 20.1949H1.03423C1.45741 11.445 9.08312 1.69485 20.8765 1.00666C23.3001 0.861327 25.5827 1.10925 27.6943 1.66493C28.9211 1.98125 30.088 2.4087 31.1951 2.92164C32.3193 3.4474 33.3794 4.06293 34.3754 4.75967L34.7301 4.3365C33.6701 3.58846 32.5501 2.94301 31.3875 2.40015C30.2633 1.87438 29.0878 1.45121 27.8909 1.13062C25.634 0.532191 23.2616 0.288544 20.8423 0.429602C8.583 1.14772 0.709371 11.3937 0.440078 20.4813L0.435802 20.7805H26.6C27.6772 20.7805 28.3611 21.3447 28.3782 22.2381C28.3868 22.6271 28.2628 22.969 28.0106 23.2255C27.6943 23.5547 27.1899 23.7342 26.5829 23.7385H0.410156L0.427255 24.0419C0.730744 30.1459 3.86396 35.8695 9.02755 39.7507C12.8575 42.6318 17.4099 44.1449 22.0049 44.1449C23.6164 44.1449 25.2365 43.9611 26.8351 43.5764L27.2455 43.4824L27.0061 43.1319C26.989 43.1062 26.9762 43.0849 26.9634 43.0635C26.9206 42.9994 26.8779 42.9267 26.8138 42.8626L26.0016 42.0462C24.9415 40.9861 23.8472 39.8833 22.7487 38.8189C22.4452 38.5282 21.9494 38.4727 21.7442 38.4598C15.5504 38.1222 10.8613 35.1898 7.80505 29.757C7.75375 29.6672 7.70246 29.5646 7.65971 29.4535H9.74567C12.9173 29.4535 16.2044 29.4492 19.4317 29.4748C19.6369 29.4748 19.9361 29.6202 20.1284 29.804C22.7573 32.4114 25.4074 35.0659 27.9764 37.6434L29.4853 39.1523C30.041 39.708 30.6052 40.2722 31.1566 40.8279L32.05 41.7256L32.2295 41.6529C34.961 40.4902 38.0343 37.6947 40.4451 34.1768C42.8645 30.6418 44.0998 27.1281 43.7493 24.7772L43.7151 24.525Z" fill="url(#paint1_linear_292_1397)"/>
<path d="M41.4147 20.3969C40.3675 20.3969 39.5126 20.3884 38.7261 20.367C38.0379 20.3456 37.713 19.4565 37.6617 19.2172C37.4181 18.046 37.0633 16.9303 36.6102 15.913L36.4648 15.5881L37.666 14.8999L37.8455 15.3017C38.3499 16.4345 38.7432 17.657 39.0082 18.9393C39.0124 18.9564 39.021 18.9778 39.0295 18.9992C39.7348 19.0163 40.5085 19.0248 41.4361 19.0248C41.7951 19.0248 42.7655 19.0205 42.7655 19.0205C42.5175 17.1056 41.9533 15.1991 41.0856 13.344C40.5769 12.2497 39.9571 11.1854 39.2475 10.1852C38.5594 9.20202 37.7857 8.283 36.9479 7.44947L36.6914 7.193L37.5634 6.1543L37.8669 6.46206C38.8073 7.40673 39.6493 8.41123 40.3803 9.45421C41.1155 10.4886 41.761 11.5872 42.2995 12.7157C43.3724 14.9854 44.0179 17.315 44.2145 19.6489L44.2786 20.3969H42.509C42.1499 20.3969 41.7823 20.3969 41.4147 20.3969Z" fill="url(#paint2_linear_292_1397)"/>
<path d="M38.8107 19.3889C38.7466 19.3247 38.6483 19.1452 38.6183 19.017C38.3576 17.7645 37.9814 16.5805 37.4813 15.4606L36.9727 15.7513C37.4471 16.8199 37.8019 17.9483 38.0498 19.1367C38.0926 19.3418 38.349 19.9574 38.7337 19.9702C39.9905 20.0001 41.2685 20.0001 42.5081 19.9958H43.8461L43.8204 19.6795C43.6238 17.367 42.9698 15.0588 41.9439 12.8831C41.4139 11.776 40.7812 10.7031 40.0546 9.67719C39.3279 8.63848 38.4987 7.65535 37.5882 6.73633L37.2291 7.16805C38.1011 8.0315 38.8834 8.97189 39.5758 9.95503C40.3025 10.9852 40.9308 12.0624 41.4481 13.178C42.3927 15.187 42.9954 17.3072 43.2134 19.4188H42.5124C41.2942 19.423 40.0417 19.4231 38.8107 19.3889Z" fill="url(#paint3_linear_292_1397)"/>
<path d="M34.7647 12.7791C34.4057 12.2919 34.0167 11.8345 33.6064 11.4156C33.4268 11.219 33.2302 11.0223 33.0122 10.8171C32.3112 10.1503 31.5717 9.56472 30.8237 9.07743C30.3022 8.73119 29.785 8.4277 29.2421 8.15413L28.9258 7.99598L29.4003 6.70508L29.7935 6.89743C30.439 7.21374 31.0588 7.5728 31.6358 7.96606C32.4608 8.50892 33.243 9.133 33.9569 9.81692C34.1791 10.0264 34.3715 10.223 34.551 10.4196C35.0298 10.9155 35.4871 11.4541 35.9018 12.0097L36.1668 12.3645L34.9699 13.0613L34.7647 12.7791Z" fill="url(#paint4_linear_292_1397)"/>
<path d="M33.6878 10.1046C32.9783 9.42498 32.2131 8.82228 31.4181 8.29652C30.841 7.90326 30.2383 7.55703 29.6228 7.25781L29.4219 7.80495C29.9776 8.08707 30.5162 8.3991 31.0419 8.74961C31.8327 9.26255 32.5807 9.86526 33.286 10.5321C33.4912 10.7287 33.7007 10.9339 33.8887 11.1433C34.3247 11.5879 34.7223 12.0624 35.0813 12.5496L35.59 12.2504C35.1882 11.7076 34.7479 11.1904 34.2649 10.6902C34.0811 10.4851 33.8887 10.297 33.6878 10.1046Z" fill="url(#paint5_linear_292_1397)"/>
<defs>
<linearGradient id="paint0_linear_292_1397" x1="-0.00145333" y1="22.2728" x2="44.2072" y2="22.2728" gradientUnits="userSpaceOnUse">
<stop stop-color="#FAA344"/>
<stop offset="0.3102" stop-color="#F19B2B"/>
<stop offset="0.7523" stop-color="#E7910C"/>
<stop offset="1" stop-color="#E38D00"/>
</linearGradient>
<linearGradient id="paint1_linear_292_1397" x1="0.416141" y1="22.2707" x2="43.8117" y2="22.2707" gradientUnits="userSpaceOnUse">
<stop stop-color="#FAA344"/>
<stop offset="0.3102" stop-color="#F19B2B"/>
<stop offset="0.7523" stop-color="#E7910C"/>
<stop offset="1" stop-color="#E38D00"/>
</linearGradient>
<linearGradient id="paint2_linear_292_1397" x1="36.4684" y1="13.2751" x2="44.2776" y2="13.2751" gradientUnits="userSpaceOnUse">
<stop stop-color="#FAA344"/>
<stop offset="0.3102" stop-color="#F19B2B"/>
<stop offset="0.7523" stop-color="#E7910C"/>
<stop offset="1" stop-color="#E38D00"/>
</linearGradient>
<linearGradient id="paint3_linear_292_1397" x1="36.9744" y1="13.3712" x2="43.8462" y2="13.3712" gradientUnits="userSpaceOnUse">
<stop stop-color="#FAA344"/>
<stop offset="0.3102" stop-color="#F19B2B"/>
<stop offset="0.7523" stop-color="#E7910C"/>
<stop offset="1" stop-color="#E38D00"/>
</linearGradient>
<linearGradient id="paint4_linear_292_1397" x1="28.9272" y1="9.88407" x2="36.1745" y2="9.88407" gradientUnits="userSpaceOnUse">
<stop stop-color="#FAA344"/>
<stop offset="0.3102" stop-color="#F19B2B"/>
<stop offset="0.7523" stop-color="#E7910C"/>
<stop offset="1" stop-color="#E38D00"/>
</linearGradient>
<linearGradient id="paint5_linear_292_1397" x1="29.4214" y1="9.89954" x2="35.5926" y2="9.89954" gradientUnits="userSpaceOnUse">
<stop stop-color="#FAA344"/>
<stop offset="0.3102" stop-color="#F19B2B"/>
<stop offset="0.7523" stop-color="#E7910C"/>
<stop offset="1" stop-color="#E38D00"/>
</linearGradient>
</defs>
</svg>
