<svg width="51" height="52" viewBox="0 0 51 52" fill="none" xmlns="http://www.w3.org/2000/svg">
<g filter="url(#filter0_b_242_1399)">
<rect width="51" height="52" rx="18" fill="white" fill-opacity="0.11"/>
<rect x="0.5" y="0.5" width="50" height="51" rx="17.5" stroke="url(#paint0_linear_242_1399)"/>
</g>
<path d="M12.8047 17.9415C12.8047 17.1785 13.1371 16.4467 13.7289 15.9071C14.3207 15.3676 15.1233 15.0645 15.9602 15.0645H33.5785C34.4852 15.0645 35.3547 15.3928 35.9957 15.9774C36.6368 16.5619 36.997 17.3547 36.997 18.1813V19.1461C38.8356 19.7388 40.1525 21.3375 40.1525 23.2162V35.6836C40.1525 36.8282 39.6538 37.9259 38.7662 38.7352C37.8785 39.5446 36.6746 39.9992 35.4192 39.9992H17.538C16.2826 39.9992 15.0787 39.5446 14.191 38.7352C13.3034 37.9259 12.8047 36.8282 12.8047 35.6836V18.1813H12.8152C12.8081 18.1015 12.8046 18.0216 12.8047 17.9415ZM35.4192 20.8186H14.9084V35.6836C14.9084 36.3195 15.1854 36.9293 15.6786 37.3789C16.1717 37.8286 16.8406 38.0812 17.538 38.0812H35.4192C36.1166 38.0812 36.7855 37.8286 37.2786 37.3789C37.7718 36.9293 38.0488 36.3195 38.0488 35.6836V23.2162C38.0488 22.5803 37.7718 21.9705 37.2786 21.5209C36.7855 21.0712 36.1166 20.8186 35.4192 20.8186ZM35 18.5C35 17.8383 34.3043 16.9825 33.5785 16.9825H15.9602C15.6812 16.9825 15.4137 17.0836 15.2164 17.2634C15.0192 17.4433 14.9393 17.8728 14.9393 18.1272C14.9393 18.3815 15.0501 18.6254 15.2474 18.8053C15.4446 18.9852 15.6812 19 15.9602 19H35V18.5Z" fill="white"/>
<path d="M30.9956 29.7321C31.1928 29.5522 31.4604 29.4512 31.7393 29.4512H34.8949C35.1738 29.4512 35.4414 29.5522 35.6386 29.7321C35.8359 29.9119 35.9467 30.1559 35.9467 30.4102C35.9467 30.6646 35.8359 30.9085 35.6386 31.0883C35.4414 31.2682 35.1738 31.3692 34.8949 31.3692H31.7393C31.4604 31.3692 31.1928 31.2682 30.9956 31.0883C30.7983 30.9085 30.6875 30.6646 30.6875 30.4102C30.6875 30.1559 30.7983 29.9119 30.9956 29.7321Z" fill="#F89609"/>
<mask id="mask0_242_1399" style="mask-type:alpha" maskUnits="userSpaceOnUse" x="8" y="3" width="34" height="16">
<rect x="8" y="3" width="34" height="16" fill="#C4C4C4"/>
</mask>
<g mask="url(#mask0_242_1399)">
<g filter="url(#filter1_f_242_1399)">
<path d="M34.0843 19.9071C33.3547 21.7059 31.3043 22.5711 29.5082 21.8418C27.7094 21.1122 26.8441 19.0619 27.5734 17.2658C28.3031 15.4671 30.3506 14.6014 32.1495 15.3311C33.946 16.0576 34.814 18.1083 34.0843 19.9071Z" fill="#FF9802"/>
</g>
<path d="M34.0843 19.909C33.3547 21.7078 31.3043 22.5731 29.5082 21.8438C27.7094 21.1141 26.8441 19.0639 27.5734 17.2678C28.3031 15.469 30.3506 14.6033 32.1495 15.333C33.946 16.0596 34.814 18.1102 34.0843 19.909Z" fill="#EB9518"/>
<path d="M32.5467 18.3896C32.6803 17.9371 32.3652 17.6373 31.9049 17.4028L32.1517 16.7973L31.7847 16.6481L31.5457 17.2381C31.4486 17.1993 31.3487 17.1602 31.2486 17.1238L31.488 16.5311L31.121 16.382L30.8773 16.9851C30.7957 16.9541 30.7169 16.9235 30.6408 16.8933L30.6411 16.8906L30.1324 16.6852L29.9739 17.0787C29.9739 17.0787 30.2473 17.184 30.2415 17.186C30.391 17.246 30.4035 17.3532 30.3865 17.4339L30.1056 18.1233C30.1161 18.1276 30.1293 18.1322 30.1444 18.1427C30.1312 18.138 30.118 18.1334 30.1052 18.126L29.7131 19.0908C29.6875 19.1343 29.6286 19.198 29.5264 19.1558C29.5284 19.1616 29.2588 19.0484 29.2588 19.0484L29.0064 19.459L29.4861 19.6547C29.575 19.6923 29.6616 19.7268 29.7478 19.764L29.5003 20.3749L29.8673 20.524L30.1141 19.9186C30.2135 19.9604 30.3129 20.0023 30.4073 20.0406L30.1636 20.6438L30.5306 20.7929L30.7782 20.182C31.4132 20.397 31.9094 20.4175 32.197 19.8567C32.4299 19.4073 32.295 19.108 31.978 18.88C32.2389 18.8588 32.4499 18.7197 32.5467 18.3896ZM31.5005 19.4888C31.3165 19.9451 30.5537 19.5761 30.3047 19.4742L30.6333 18.6641C30.8822 18.766 31.6958 19.0119 31.5005 19.4888ZM31.795 18.2745C31.6249 18.6912 30.993 18.3769 30.786 18.292L31.0843 17.558C31.2913 17.6428 31.9701 17.8418 31.795 18.2745Z" fill="white"/>
<path d="M25.5862 15.32C25.8608 18.2391 23.7152 20.8267 20.7999 21.0999C17.8808 21.3746 15.2932 19.2292 15.02 16.3139C14.7453 13.3948 16.8869 10.8086 19.8062 10.534C22.7201 10.2568 25.3115 12.4008 25.5862 15.32Z" fill="#EB9518"/>
<g filter="url(#filter2_f_242_1399)">
<path d="M25.5862 15.32C25.8608 18.2391 23.7152 20.8267 20.7999 21.0999C17.8808 21.3746 15.2932 19.2292 15.02 16.3139C14.7453 13.3948 16.8869 10.8086 19.8062 10.534C22.7201 10.2568 25.3115 12.4008 25.5862 15.32Z" fill="#FF9700"/>
</g>
<path d="M20.8146 17.3125L18.5858 16.8731L21.3444 18.8229L22.2778 15.575L20.8134 17.3129L20.8146 17.3125ZM19.2603 12.8041L18.4908 16.513L20.7195 16.9545L22.1827 15.2162L19.2603 12.8041Z" fill="white"/>
</g>
<defs>
<filter id="filter0_b_242_1399" x="-9" y="-9" width="69" height="70" filterUnits="userSpaceOnUse" color-interpolation-filters="sRGB">
<feFlood flood-opacity="0" result="BackgroundImageFix"/>
<feGaussianBlur in="BackgroundImage" stdDeviation="4.5"/>
<feComposite in2="SourceAlpha" operator="in" result="effect1_backgroundBlur_242_1399"/>
<feBlend mode="normal" in="SourceGraphic" in2="effect1_backgroundBlur_242_1399" result="shape"/>
</filter>
<filter id="filter1_f_242_1399" x="20.3164" y="8.07227" width="21.0273" height="21.0273" filterUnits="userSpaceOnUse" color-interpolation-filters="sRGB">
<feFlood flood-opacity="0" result="BackgroundImageFix"/>
<feBlend mode="normal" in="SourceGraphic" in2="BackgroundImageFix" result="shape"/>
<feGaussianBlur stdDeviation="3.5" result="effect1_foregroundBlur_242_1399"/>
</filter>
<filter id="filter2_f_242_1399" x="6.99609" y="2.50977" width="26.6133" height="26.6133" filterUnits="userSpaceOnUse" color-interpolation-filters="sRGB">
<feFlood flood-opacity="0" result="BackgroundImageFix"/>
<feBlend mode="normal" in="SourceGraphic" in2="BackgroundImageFix" result="shape"/>
<feGaussianBlur stdDeviation="4" result="effect1_foregroundBlur_242_1399"/>
</filter>
<linearGradient id="paint0_linear_242_1399" x1="3.5" y1="5.5" x2="56" y2="52" gradientUnits="userSpaceOnUse">
<stop stop-color="#F19B2B"/>
<stop offset="0.270833" stop-color="#FFB855" stop-opacity="0"/>
<stop offset="0.534283" stop-color="#F19B2B" stop-opacity="0.43"/>
<stop offset="0.896857" stop-color="#F19B2B" stop-opacity="0"/>
</linearGradient>
</defs>
</svg>
